<?xml version="1.0" encoding="utf-8"?>
<!-- Generator: Adobe Illustrator 22.0.1, SVG Export Plug-In . SVG Version: 6.00 Build 0)  -->
<svg version="1.1" id="Layer_1" xmlns="http://www.w3.org/2000/svg" xmlns:xlink="http://www.w3.org/1999/xlink" x="0px" y="0px"
	 viewBox="0 0 200 50" style="enable-background:new 0 0 200 50;" xml:space="preserve">
<style type="text/css">
	.st0{fill:url(#SVGID_1_);}
	.st1{fill:#F58E85;}
	.st2{fill:url(#SVGID_2_);}
	.st3{fill:url(#SVGID_3_);}
	.st4{fill:url(#SVGID_4_);}
	.st5{fill:url(#SVGID_5_);}
	.st6{fill:url(#SVGID_6_);}
	.st7{fill:url(#SVGID_7_);}
	.st8{fill:url(#SVGID_8_);}
	.st9{fill:url(#SVGID_9_);}
	.st10{fill:url(#SVGID_10_);}
	.st11{fill:url(#SVGID_11_);}
	.st12{fill:url(#SVGID_12_);}
	.st13{fill:#EC4A3C;}
	.st14{fill:#EE3568;}
	.st15{fill:#F7B7D3;}
	.st16{fill:#F37064;}
	.st17{fill:#F1B0CF;}
	.st18{fill:#FFFBCE;}
	.st19{fill:#FFFFFF;}
</style>
<linearGradient id="SVGID_1_" gradientUnits="userSpaceOnUse" x1="112.3013" y1="31.5389" x2="112.3013" y2="5.7367" gradientTransform="matrix(0.9937 -0.1124 0.1124 0.9937 -2.0949 12.7794)">
	<stop  offset="0" style="stop-color:#D92128"/>
	<stop  offset="0.2796" style="stop-color:#D51D24"/>
	<stop  offset="0.6368" style="stop-color:#D31A21"/>
	<stop  offset="1" style="stop-color:#D31820"/>
</linearGradient>
<path class="st0" d="M119.5,28.4c-0.2,0-0.3-0.1-0.5-0.1c0.7-0.4,1.5-0.9,2.2-1.7c1.3-1.4,1.9-3.2,1.7-5c0-0.5-0.1-1.1-0.3-1.6
	l0-0.1l0-0.1l-0.2-0.3l0-0.1l-0.1-0.1c-1.5-1.7-3.2-2.2-4.5-2.3c0.6-0.3,1.1-0.8,1.6-1.3c1.1-1.2,1.6-2.7,1.4-4.3
	c-0.1-0.7-0.3-1.3-0.5-1.9c-0.5-1.1-2-2.8-6.2-2.3c-1.1,0.1-2.3,0.4-3.5,0.8l-6.3,1.4l-0.4,0.1l-0.3,0.2l-0.3,0.2
	c-1.4,1.3-2.1,3.3-2.2,6.3c-0.1,4.2,0.1,8,0.5,11.3c0.7,6,1.7,9.7,3.1,11.6l0,0l0,0l0.1,0.1l0,0l0,0c1.7,1.8,2.6,2.2,3.3,2.5
	c1.6,0.6,3.3,0.7,5.2,0.5c2.1-0.2,4-0.9,5.5-2.1c1.5-1.1,2.7-2.5,3.4-4c0.8-1.6,1-3.1,0.7-4.6C122.6,30.1,121.3,28.9,119.5,28.4z
	 M116.4,27.8c0.1,0,0.2,0,0.3,0c0,0-0.1,0-0.1,0C116.6,27.8,116.5,27.8,116.4,27.8z M117.6,27.6c-0.1,0-0.2,0.1-0.2,0.1
	C117.5,27.7,117.5,27.6,117.6,27.6z M117.2,27.7c-0.1,0-0.2,0-0.2,0C117,27.8,117.1,27.7,117.2,27.7z M117.2,29.2c0,0,0.1,0,0.1,0
	C117.3,29.2,117.2,29.2,117.2,29.2C117.2,29.2,117.2,29.2,117.2,29.2z M118.2,29.2c-0.1,0-0.1,0-0.2,0
	C118.1,29.2,118.1,29.2,118.2,29.2z M117.8,27.5c0.1,0,0.2-0.1,0.3-0.1C118,27.5,117.9,27.5,117.8,27.5z M118.3,27.4
	c0.1,0,0.2-0.1,0.3-0.1C118.5,27.3,118.4,27.3,118.3,27.4z M118.8,27.1c0.1-0.1,0.2-0.1,0.3-0.2C118.9,27,118.8,27.1,118.8,27.1z
	 M119.2,26.8c0.1-0.1,0.2-0.2,0.3-0.3C119.4,26.6,119.3,26.7,119.2,26.8z M119.7,26.4c0.2-0.1,0.3-0.3,0.5-0.5
	C120,26.1,119.8,26.3,119.7,26.4z"/>
<linearGradient id="SVGID_2_" gradientUnits="userSpaceOnUse" x1="16.904" y1="26.0947" x2="16.904" y2="0.2071" gradientTransform="matrix(0.9928 0.12 -0.12 0.9928 2.3434 -2.1751)">
	<stop  offset="0" style="stop-color:#D92128"/>
	<stop  offset="0.2796" style="stop-color:#D51D24"/>
	<stop  offset="0.6368" style="stop-color:#D31A21"/>
	<stop  offset="1" style="stop-color:#D31820"/>
</linearGradient>
<path class="st2" d="M25.5,20.1c1-1.1,1.7-2,2.2-2.7c2.2-2.6,3.5-5.3,3.9-8c0.2-1.1,0.1-2.2-0.3-3.1c-0.9-2.5-3.3-4.1-6.7-4.4l0,0
	c-0.3,0-0.6-0.1-1-0.1l-0.1,0l-0.1,0l-0.4,0l-0.1,0l-0.1,0c-1.2,0.2-2.3,0.8-3.4,1.8c-1-1.4-2.7-2.3-4.9-2.5C12.5,1,10.4,1.6,8.9,3
	C7.9,3.6,6.9,5.1,5.5,9.5C4.4,12.8,3.6,16.4,3.1,20c-1.1,7.4-0.7,11.6,1.3,13.6c1.1,1.1,2.6,1.8,4.4,1.9c2.1,0.2,4-0.2,5.6-1.2
	l0.2-0.1l0.2-0.1l0.1-0.1l0.1-0.1c0.1-0.2,0.3-0.4,0.4-0.6c1.3,2.5,2.8,3.7,4.7,3.9c0.2,0,0.3,0,0.5,0c2.9,0,4.4-1.2,5.1-1.9
	c1.2-1.2,1.9-2.7,2.1-4.4c0.3-2-0.2-4.8-1.4-8.3C26,21.5,25.7,20.7,25.5,20.1z M26.6,3.4c0.2,0.1,0.4,0.1,0.6,0.2
	C27,3.5,26.8,3.5,26.6,3.4z M27.6,3.8C27.7,3.9,27.9,4,28,4.1C27.9,4,27.7,3.9,27.6,3.8z M28.4,4.3c0.1,0.1,0.3,0.2,0.4,0.3
	C28.6,4.5,28.5,4.4,28.4,4.3z M29.7,5.8c-0.1-0.1-0.2-0.3-0.3-0.4C29.6,5.5,29.7,5.7,29.7,5.8z M30.1,6.6C30,6.4,29.9,6.2,29.8,6
	C29.9,6.2,30,6.4,30.1,6.6z M29.3,5.2c-0.1-0.1-0.2-0.2-0.3-0.4C29.1,4.9,29.2,5.1,29.3,5.2z M26.1,3.2c-0.2-0.1-0.4-0.1-0.7-0.1
	C25.7,3.1,25.9,3.2,26.1,3.2z M24.5,3c0.1,0,0.2,0,0.3,0.1c-0.4,0-0.8-0.1-1.2-0.1C24,2.9,24.3,2.9,24.5,3z"/>
<linearGradient id="SVGID_3_" gradientUnits="userSpaceOnUse" x1="36.6414" y1="29.0729" x2="36.6414" y2="3.2707">
	<stop  offset="0" style="stop-color:#D92128"/>
	<stop  offset="0.2796" style="stop-color:#D51D24"/>
	<stop  offset="0.6368" style="stop-color:#D31A21"/>
	<stop  offset="1" style="stop-color:#D31820"/>
</linearGradient>
<path class="st3" d="M50.2,24.3c0-2.5-0.7-5.9-2.2-10.4c-0.8-2.3-2.3-4.3-4.5-5.9c-2.4-1.7-4.9-2.6-7.5-2.6c-0.7,0-1.3,0.1-1.9,0.2
	c-5.5,1.1-9.1,5.4-10.6,12.9c-0.3,1.6-0.5,3.3-0.5,5.1c0,4.1,1,7.6,3.1,10.5c2.7,3.8,6.5,5.7,11.4,5.7c2.8,0,5.3-0.8,7.4-2.4
	c2-1.5,3.4-3.5,4.1-5.9l0.2-0.5l0.2-0.5l-0.1-0.1C49.9,28.2,50.2,26.1,50.2,24.3z"/>
<linearGradient id="SVGID_4_" gradientUnits="userSpaceOnUse" x1="58.2553" y1="26.9668" x2="58.2553" y2="1.1646">
	<stop  offset="0" style="stop-color:#D92128"/>
	<stop  offset="0.2796" style="stop-color:#D51D24"/>
	<stop  offset="0.6368" style="stop-color:#D31A21"/>
	<stop  offset="1" style="stop-color:#D31820"/>
</linearGradient>
<path class="st4" d="M71.5,12.8l-0.1-1h0C71.3,10.5,71.1,9.6,71,9c-1.1-5.1-4.9-5.9-7.1-5.9c-2.3,0-4.2,0.9-5.4,2.4
	c-0.1,0.1-0.2,0.3-0.3,0.4c-0.5-0.5-1-1-1.6-1.3l-0.1,0l-0.1,0l-0.3-0.1l-0.1,0l-0.1,0c-0.9-0.3-1.7-0.4-2.6-0.4
	c-1.7,0-3.3,0.5-4.6,1.5c-1.8,1.4-3,3.1-3.5,5.2c-0.6,2.4-0.8,6.8-0.8,13.4c0,3.5,0.3,6.1,0.8,7.9c1.3,4.1,4.2,5.2,6.4,5.4
	c0.2,0,0.4,0,0.7,0c1.1,0,2.2-0.3,3.3-1c1-0.6,1.8-1.3,2.2-2.2c0.8,1.3,1.4,1.8,2,2.1l0.1,0l0.1,0l0.4,0.2l0.1,0l0.1,0
	c1.3,0.3,2.3,0.5,3.3,0.5c0.9,0,1.7-0.1,2.5-0.4c3.7-1.4,5.4-6.2,5.4-15.5C71.8,18.7,71.7,15.8,71.5,12.8z M53.7,5.1
	c-0.1,0-0.2,0-0.2,0c0,0,0,0,0.1,0C53.6,5.1,53.6,5.1,53.7,5.1z M54.7,5.2c-0.1,0-0.2,0-0.3,0C54.5,5.2,54.6,5.2,54.7,5.2z
	 M52.6,5.2c0,0-0.1,0-0.1,0C52.5,5.2,52.5,5.2,52.6,5.2z M51.7,5.4c-0.1,0-0.2,0.1-0.3,0.1C51.5,5.5,51.6,5.4,51.7,5.4z M50.9,5.7
	c-0.1,0-0.2,0.1-0.2,0.1C50.7,5.8,50.8,5.8,50.9,5.7z M61.1,35.8c0.5,0.1,1,0.2,1.4,0.3C62.1,36,61.7,35.9,61.1,35.8z M62.7,36.1
	c0.4,0.1,0.8,0.1,1.2,0.1C63.5,36.2,63.1,36.1,62.7,36.1z M63.9,36.2c0.3,0,0.5,0,0.7-0.1C64.4,36.2,64.2,36.2,63.9,36.2
	C64,36.2,64,36.2,63.9,36.2z M65,36.1c0.3-0.1,0.6-0.1,0.9-0.3C65.6,36,65.3,36.1,65,36.1z"/>
<linearGradient id="SVGID_5_" gradientUnits="userSpaceOnUse" x1="77.0208" y1="27.5238" x2="77.0208" y2="1.6219" gradientTransform="matrix(0.9917 -0.1287 0.1287 0.9917 -1.8703 8.5131)">
	<stop  offset="0" style="stop-color:#D92128"/>
	<stop  offset="0.2796" style="stop-color:#D51D24"/>
	<stop  offset="0.6368" style="stop-color:#D31A21"/>
	<stop  offset="1" style="stop-color:#D31820"/>
</linearGradient>
<path class="st5" d="M88.2,18.8L88.2,18.8L88,18.7l0,0l0,0c-0.5-0.4-1.1-0.7-1.9-1c0.7-0.5,1.2-1.2,1.6-2c0.6-1.2,0.7-2.6,0.5-4.3
	c-0.1-0.5-0.2-1-0.4-1.6l0,0l0,0l-0.4-0.9L87,8L87,8c-1.1-1.9-3.1-3.6-5.9-5.2l0,0l0,0l-0.2-0.1l0,0l-0.1,0C78.9,2,77.1,1.8,75.2,2
	c-2.1,0.2-4,0.9-5.5,2l0,0l0,0l-0.1,0.1l0,0l0,0c-2,1.8-3.3,4.4-4.1,7.8c-0.7,3.2-0.7,6.7-0.1,10.3c0.4,2.7,1.2,5.2,2.3,7.3
	c1.1,2.3,2.6,4,4.2,5.1c2.5,1.7,5.2,2.3,8.1,2c0.7-0.1,1.5-0.2,2.4-0.4c2.1-0.5,3.9-1.7,5.2-3.6c1.1-1.4,1.8-3.2,2.1-5.1
	c0.3-1.7,0.4-3.4,0.1-5C89.6,21,89.1,19.8,88.2,18.8L88.2,18.8z M81.9,17.9c0.2,0,0.4,0,0.6-0.1c-0.1,0-0.1,0-0.2,0
	C82.1,17.9,82,17.9,81.9,17.9z M82.8,17.8c0.1,0,0.3-0.1,0.4-0.1C83.1,17.7,83,17.8,82.8,17.8z M83.5,17.6c0.1,0,0.2-0.1,0.4-0.1
	C83.8,17.5,83.6,17.6,83.5,17.6z M84.2,17.4c0.1-0.1,0.2-0.1,0.3-0.2C84.4,17.3,84.3,17.3,84.2,17.4z M84.8,17.1
	c0.1-0.1,0.2-0.1,0.3-0.2C85,16.9,84.9,17,84.8,17.1z M85.3,16.7c0.1-0.1,0.2-0.2,0.3-0.3C85.5,16.5,85.4,16.6,85.3,16.7z
	 M85.7,16.3c0.1-0.1,0.2-0.2,0.3-0.3C85.9,16,85.8,16.2,85.7,16.3z M86.1,15.8c0.1-0.2,0.2-0.4,0.3-0.6
	C86.4,15.4,86.3,15.6,86.1,15.8z"/>
<linearGradient id="SVGID_6_" gradientUnits="userSpaceOnUse" x1="94.3983" y1="35.8938" x2="94.3983" y2="10.0916">
	<stop  offset="0" style="stop-color:#D92128"/>
	<stop  offset="0.2796" style="stop-color:#D51D24"/>
	<stop  offset="0.6368" style="stop-color:#D31A21"/>
	<stop  offset="1" style="stop-color:#D31820"/>
</linearGradient>
<path class="st6" d="M105.4,29.9L105.4,29.9l-0.2-0.2l0,0l0,0c-0.4-0.4-0.9-0.8-1.7-1.2c0.8-0.5,1.4-1.1,1.9-1.8
	c0.8-1.1,1.1-2.5,1.1-4.2c0-0.5,0-1.1-0.1-1.6l0,0l0,0l-0.2-0.9L106,19h-0.1c-0.8-2-2.5-3.9-5-5.7l0,0l0,0l-0.2-0.1l0,0l0,0
	c-1.6-0.8-3.4-1.2-5.3-1.2c-2.1,0-4.1,0.5-5.8,1.4l0,0l0,0l-0.1,0.1l0,0l0,0c-2.3,1.5-4,4-5.3,7.3c-1.2,3.1-1.8,6.6-1.8,10.2
	c0,2.8,0.4,5.3,1.1,7.5c0.8,2.4,1.9,4.2,3.4,5.5c2.2,1.9,4.8,2.9,7.7,2.9c0.7,0,1.5-0.1,2.4-0.2c2.2-0.3,4.1-1.3,5.8-3
	c1.3-1.3,2.3-2.9,3-4.8c0.6-1.7,0.9-3.3,0.9-4.9C106.5,32.3,106.1,31,105.4,29.9L105.4,29.9z M99.3,28.4c0.2,0,0.4,0,0.6,0
	c-0.1,0-0.1,0-0.2,0C99.6,28.4,99.4,28.4,99.3,28.4z M100.2,28.4c0.1,0,0.3,0,0.4,0C100.5,28.3,100.4,28.4,100.2,28.4z M101,28.3
	c0.1,0,0.3-0.1,0.4-0.1C101.2,28.2,101.1,28.2,101,28.3z M101.6,28.1c0.1,0,0.2-0.1,0.4-0.1C101.9,28,101.8,28.1,101.6,28.1z
	 M102.3,27.9c0.1-0.1,0.2-0.1,0.3-0.2C102.5,27.7,102.4,27.8,102.3,27.9z M102.9,27.5c0.1-0.1,0.2-0.2,0.3-0.2
	C103.1,27.4,103,27.5,102.9,27.5z M103.4,27.2c0.1-0.1,0.2-0.2,0.3-0.3C103.6,27,103.5,27.1,103.4,27.2z M103.9,26.7
	c0.1-0.2,0.3-0.3,0.4-0.5C104.2,26.4,104,26.5,103.9,26.7z"/>
<linearGradient id="SVGID_7_" gradientUnits="userSpaceOnUse" x1="128.8835" y1="31.9437" x2="128.8835" y2="6.118" gradientTransform="matrix(0.9975 7.132610e-02 -7.132610e-02 0.9975 2.1389 -9.1993)">
	<stop  offset="0" style="stop-color:#D92128"/>
	<stop  offset="0.2796" style="stop-color:#D51D24"/>
	<stop  offset="0.6368" style="stop-color:#D31A21"/>
	<stop  offset="1" style="stop-color:#D31820"/>
</linearGradient>
<path class="st7" d="M142.7,16l-0.1-0.9l-0.1-0.9l-0.4,0c-0.5-1.1-1.4-2.1-2.6-2.9l0,0l0,0l-0.2-0.1l0,0l0,0
	c-1.6-0.8-2.8-1.4-3.5-1.8l-0.1,0l-0.1,0l-0.3-0.1l-0.1,0l-0.1,0c-1.8-0.5-3.6-0.9-5.3-1c-3.5-0.3-6.6,0-9.2,1.1
	c-2.5,1-4,2.7-4.2,4.9c-0.1,1.2,0.1,2.5,0.7,3.9c0.6,1.3,1.7,2.3,3.4,3.1c0.4,0.2,0.8,0.3,1.2,0.5c-0.1,0.6-0.3,1.3-0.4,1.9
	l-0.7,4.9c-0.2,1.5-0.4,2.4-0.4,3l0,0l-0.1,1l-0.2,0.9l0.1,0l0,0.1l-0.1,1l0.1,0c0,1.7,0.3,3,0.8,4c1.1,2.2,3.5,3.6,6.7,4.1
	c0.1,0,0.1,0,0.2,0c1.5,0.1,4.3-0.1,6.1-3.7c0.8-1.6,1.4-3.7,1.7-6.2c0.1-1.1,0.2-2.2,0.2-3.3c0-3.3,0-5.2,0-6.3
	c0.2,0,0.4,0,0.6-0.1c2.7-0.3,3.9-0.6,4.7-1.3c1-0.9,1.6-2.2,1.8-3.9C142.7,17.1,142.7,16.5,142.7,16z M131,9.3
	c-0.5-0.1-1-0.1-1.5-0.2c0.1,0,0.1,0,0.2,0C130.2,9.2,130.6,9.2,131,9.3z M134.8,10.1c-0.6-0.2-1.1-0.3-1.7-0.4
	C133.7,9.8,134.2,9.9,134.8,10.1z M132.7,9.6c-0.5-0.1-1-0.2-1.5-0.3C131.6,9.4,132.2,9.5,132.7,9.6z M127.5,9c-0.1,0-0.1,0-0.2,0
	C127.4,9,127.4,9,127.5,9z M125.5,9.1c-0.2,0-0.4,0-0.6,0.1C125.1,9.2,125.3,9.2,125.5,9.1z M123.5,9.5c-0.2,0-0.4,0.1-0.5,0.1
	C123.2,9.5,123.4,9.5,123.5,9.5z"/>
<linearGradient id="SVGID_8_" gradientUnits="userSpaceOnUse" x1="147.6758" y1="35.2864" x2="147.6758" y2="9.3928" gradientTransform="matrix(0.9991 4.266896e-02 -4.266896e-02 0.9991 1.468 -5.6519)">
	<stop  offset="0" style="stop-color:#D92128"/>
	<stop  offset="0.2796" style="stop-color:#D51D24"/>
	<stop  offset="0.6368" style="stop-color:#D31A21"/>
	<stop  offset="1" style="stop-color:#D31820"/>
</linearGradient>
<path class="st8" d="M162,21.4c0-1-0.1-2-0.3-3l0,0l0,0c-0.1-0.4-0.2-0.8-0.3-1.2c-0.4-2.2-1.7-3.6-3.7-4.3c-0.5-0.2-1.1-0.2-2-0.3
	c-0.2,0-0.5,0-0.7,0c-1.6,0-2.8,0.1-3.7,0.7c-0.7,0.4-1.4,0.9-1.9,1.4c-0.1-0.2-0.2-0.3-0.4-0.5l-0.1-0.1l-0.1-0.1l-0.2-0.2
	l-0.1-0.1l-0.1,0c-1.1-0.7-2.6-1.1-4.6-1.2c-2.5-0.1-4.7,0.7-6.3,2.3l-1.7,1.6l-1.7,1.6l1.9,0.1c-0.5,1.8-0.8,4.2-1,7.3
	c-0.1,2.2-0.2,4.8-0.3,7.9c-0.1,2.3,0.1,4.4,0.5,6.3c0.4,1.9,1,3.3,1.8,4.2c1.2,1.4,2.9,2.2,4.8,2.3c1.7,0.1,2.9-0.1,3.8-0.5
	c0.8-0.3,1.5-0.8,2-1.4c0.3,0.4,0.6,0.7,1,0.9c0.6,0.5,1.7,1.1,3.3,1.1c0.6,0,1.2,0,1.8-0.1c2.7-0.5,4.6-1.9,5.3-4.1
	c1.5-4.6,2.4-8.9,2.6-12.8C161.9,27.7,162,25,162,21.4z M157.2,13.8c-0.1,0-0.2-0.1-0.3-0.1C157,13.8,157.1,13.8,157.2,13.8z
	 M156.7,13.7c-0.1,0-0.2,0-0.3,0C156.5,13.7,156.6,13.7,156.7,13.7z M156.3,13.7c-0.1,0-0.3,0-0.4,0C156,13.7,156.1,13.7,156.3,13.7
	z M155.7,13.6C155.7,13.6,155.7,13.6,155.7,13.6c-0.2,0-0.4,0-0.7,0C155.2,13.6,155.5,13.6,155.7,13.6z M150.1,45c0,0-0.1,0-0.1-0.1
	C150,44.9,150.1,45,150.1,45z M152,45.5c0,0,0.1,0,0.1,0c0,0,0,0,0,0C152.1,45.5,152,45.5,152,45.5z M150.6,45.2
	C150.6,45.2,150.6,45.2,150.6,45.2C150.6,45.2,150.6,45.2,150.6,45.2z M151.2,45.4c0.1,0,0.1,0,0.2,0
	C151.3,45.4,151.3,45.4,151.2,45.4z M152.8,45.5c-0.1,0-0.2,0-0.2,0C152.6,45.5,152.7,45.5,152.8,45.5z"/>
<linearGradient id="SVGID_9_" gradientUnits="userSpaceOnUse" x1="168.2193" y1="32.7347" x2="168.2193" y2="6.9325">
	<stop  offset="0" style="stop-color:#D92128"/>
	<stop  offset="0.2796" style="stop-color:#D51D24"/>
	<stop  offset="0.6368" style="stop-color:#D31A21"/>
	<stop  offset="1" style="stop-color:#D31820"/>
</linearGradient>
<path class="st9" d="M175,30.3c-0.1-0.1-0.3-0.1-0.5-0.2c0.8-0.3,1.6-0.7,2.4-1.4c1.5-1.3,2.3-2.9,2.3-4.8c0-0.5,0-1.1-0.2-1.7
	l0-0.1l0-0.1l-0.1-0.3l0-0.1l0-0.1c-1.3-1.8-2.9-2.5-4.2-2.8c0.6-0.3,1.2-0.6,1.7-1.1c1.2-1.1,1.9-2.5,1.9-4.1
	c0-0.7-0.1-1.4-0.3-1.9c-0.4-1.1-1.7-3-5.9-3c-1.1,0-2.3,0.1-3.5,0.4l-6.4,0.7l-0.4,0l-0.3,0.2l-0.3,0.2c-1.6,1.1-2.5,3-2.9,6
	c-0.6,4.2-0.8,8-0.8,11.2c0,6,0.6,9.8,1.8,11.8l0,0l0,0l0.1,0.1l0,0l0,0c1.5,1.9,2.3,2.5,3,2.8c1.5,0.7,3.2,1.1,5.1,1.1
	c2.2,0,4.1-0.5,5.7-1.4c1.6-0.9,2.9-2.2,3.8-3.6c1-1.5,1.4-3,1.2-4.5C177.8,32.4,176.8,31.1,175,30.3z M172,29.5c0.1,0,0.2,0,0.3,0
	c0,0-0.1,0-0.1,0C172.1,29.5,172.1,29.5,172,29.5z M173.2,29.4c-0.1,0-0.2,0-0.3,0C173,29.4,173.1,29.4,173.2,29.4z M172.8,29.5
	c-0.1,0-0.2,0-0.2,0C172.6,29.5,172.7,29.5,172.8,29.5z M172.6,30.9c0,0,0.1,0,0.1,0C172.7,30.9,172.6,30.9,172.6,30.9
	C172.6,30.9,172.6,30.9,172.6,30.9z M173.6,31c-0.1,0-0.1,0-0.2,0C173.5,31,173.5,31,173.6,31z M173.4,29.4c0.1,0,0.2,0,0.3-0.1
	C173.6,29.3,173.5,29.3,173.4,29.4z M173.9,29.2c0.1,0,0.2-0.1,0.3-0.1C174.1,29.1,174,29.2,173.9,29.2z M174.4,29
	c0.1,0,0.2-0.1,0.3-0.2C174.6,28.9,174.5,29,174.4,29z M174.9,28.8c0.1-0.1,0.2-0.1,0.3-0.2C175.1,28.6,175,28.7,174.9,28.8z
	 M175.4,28.4c0.2-0.1,0.3-0.3,0.5-0.4C175.7,28.2,175.6,28.3,175.4,28.4z"/>
<linearGradient id="SVGID_10_" gradientUnits="userSpaceOnUse" x1="185.3829" y1="37.9999" x2="185.3829" y2="12.1977">
	<stop  offset="0" style="stop-color:#D92128"/>
	<stop  offset="0.2796" style="stop-color:#D51D24"/>
	<stop  offset="0.6368" style="stop-color:#D31A21"/>
	<stop  offset="1" style="stop-color:#D31820"/>
</linearGradient>
<path class="st10" d="M195,34.2c0.6-0.6,0.9-0.9,1-1.1c1.3-1.7,2-3.9,2-6.4c0-2.3-0.6-4.8-1.7-7.6l0,0l0,0c-1.8-3.2-5.3-5-10-5.1
	l-0.1,0l-0.1,0l-0.1,0l-0.1,0c-3.5,0.4-5.7,0.7-7,1.1c-3.2,1-5.1,3-5.6,5.6c-0.4,2.7-0.7,6.7-0.9,11.8c-0.1,4.6-0.2,6.2-0.1,6.9v1.4
	c0,2.4,0.4,4.1,1.3,5.2c0.8,1,2.2,1.8,4.3,2.4c0.7,0.2,1.4,0.3,2.2,0.3c1.8,0,3.5-0.6,5.2-1.7l0.1,0l0.1-0.1l0.2-0.2l0.1-0.1l0-0.1
	c0,0,0,0,0,0c1.5,1.5,3.1,2.2,4.9,2.2c0.2,0,0.4,0,0.7,0c1.7-0.2,3.4-1,4.9-2.4c0.5-0.5,1-1,1.4-1.6l0.8-0.9l0.1-0.9
	c0.1-0.4,0.1-0.7,0.1-1C198.5,39.6,197.4,37.1,195,34.2z"/>
<path class="st13" d="M10.1,3.4L10.1,3.4c1-1,2.2-1.4,3.8-1.3c1.9,0.2,3,1,3.4,2.5c-0.1,0.7-0.1,1.2-0.2,1.6
	c-0.1,0.5-0.3,1.5-0.6,2.9s-0.5,2.3-0.5,2.6c0.1,0.2,0.2,0.4,0.4,0.4c0.2,0,0.3-0.1,0.4-0.3c0,0,0-0.1,0-0.3
	c0.2-1.1,0.9-2.7,2.1-4.8c1.4-2.5,2.8-3.8,4.2-4.1c2.8,0.1,4.5,1.1,5.2,2.9c0.2,0.7,0.3,1.4,0.2,2.3c-0.4,2.3-1.5,4.7-3.5,7.1
	c-0.7,0.8-1.6,2-3,3.5c0.3,0.6,0.7,1.7,1.3,3.4c1.2,3.2,1.6,5.7,1.4,7.4c-0.2,1.3-0.7,2.5-1.6,3.4c-0.7,0.7-1.6,1.1-2.9,1.1
	c-1.2,0-2.4-1.5-3.6-4.5c-0.9-2.2-1.4-3.9-1.6-5.3c-0.1-0.1-0.3-0.2-0.7-0.4l-0.3,0.2c0,1.6,0,2.9-0.2,3.9c-0.2,1.6-0.7,2.9-1.5,3.7
	c-1.1,0.7-2.3,0.9-3.7,0.8c-1.1-0.1-2-0.5-2.7-1.1C4.4,29.6,4.1,25.5,5.1,19c0.5-3.6,1.3-7,2.4-10.3S9.4,3.7,10.1,3.4z"/>
<path class="st13" d="M45.8,29.7L45.8,29.7c-0.6,2.1-1.7,3.7-3.3,4.9c-1.6,1.2-3.5,1.8-5.6,1.8c-3.9,0-6.9-1.5-9.1-4.6
	c-1.8-2.6-2.8-5.8-2.8-9.5c0-1.7,0.1-3.3,0.4-4.7C26.8,11,29.6,7.3,34,6.4c0.4-0.1,0.8-0.1,1.3-0.1c2,0,3.9,0.7,5.7,2
	c1.9,1.4,3.1,3,3.7,4.9c1.4,4.2,2.1,7.5,2.1,9.8C46.8,25.1,46.4,27.3,45.8,29.7L45.8,29.7z M36.6,27L36.6,27
	c0.7-0.2,1.1-1.6,1.1-4.3c0-1.6-0.1-3-0.4-4.3c-0.3-1.3-0.6-2-0.9-2c-0.5-0.2-1,0.5-1.5,1.8c-0.4,1.4-0.7,2.9-0.7,4.5
	C34.3,25.8,35,27.2,36.6,27z"/>
<path class="st13" d="M68.1,11.8L68.1,11.8c0.2,2.9,0.4,5.7,0.4,8.3c0,8.1-1.3,12.6-3.9,13.6c-0.4,0.2-0.8,0.2-1.4,0.2
	c-0.6,0-1.4-0.1-2.4-0.4c-1.2-0.7-3.1-4.8-5.6-12.3c0.4,2,0.7,3.9,0.7,5.8c0,2.1-0.3,3.8-0.9,5.1c-0.3,0.6-0.8,1.1-1.5,1.5
	c-0.7,0.4-1.4,0.6-2,0.5c-2-0.2-3.4-1.5-4.2-3.9c-0.5-1.6-0.7-4-0.7-7.3c0-6.5,0.3-10.8,0.8-13c0.4-1.7,1.3-3,2.7-4.1
	C50.8,5.3,51.7,5,52.8,5c0.5,0,1.1,0.1,1.6,0.3c1.4,0.8,2.8,3.1,4.2,7.1c0.6,1.6,1.1,3.5,1.6,5.6c-0.2-1.7-0.5-3.2-0.6-4.4
	c-0.3-2.2-0.4-3.9-0.4-4.9c0-1.2,0.3-2.3,1-3.1c0.7-0.9,1.8-1.4,3.1-1.4c2.4,0,3.9,1.4,4.5,4.1C67.8,8.8,67.9,10,68.1,11.8z"/>
<path class="st13" d="M84.3,9.2c0.1,0.4,0.2,0.8,0.3,1.3c0.2,1.4,0.1,2.5-0.3,3.3c-0.6,1.3-1.8,2-3.5,2.1c-1.5,0.1-2.7-0.5-3.4-1.9
	l-0.2-1.1c-0.1-0.3-0.2-0.6-0.5-0.8l-0.2,0.1c-0.9,4.3-1.1,7.8-0.7,10.5c0.2,0.9,0.2,1.3,0.1,1c0.1,0.4,0.4,0.7,0.8,1.1
	c1.1-0.2,1.7-0.6,1.8-1.2c0.1-0.4-0.1-0.7-0.6-0.9c-0.4,0-0.7-0.1-0.8-0.2c-0.3-0.1-0.5-0.3-0.5-0.6c-0.2-0.6-0.1-1.3,0.2-2.1
	l0.8-0.9c0.2,0,0.9-0.1,1.9-0.3c1-0.2,1.7-0.3,2-0.3c1.4-0.1,2.5,0.1,3.4,0.8c0.6,0.7,1,1.6,1.2,2.8c0.2,1.4,0.2,2.8-0.1,4.4
	c-0.3,1.7-0.9,3.1-1.8,4.3c-1,1.4-2.2,2.3-3.7,2.6c-0.7,0.2-1.4,0.3-2,0.4c-2.1,0.2-4.2-0.3-6.1-1.6c-1.3-0.9-2.5-2.3-3.5-4.2
	c-1-1.9-1.7-4.2-2.1-6.8c-0.6-3.5-0.5-6.7,0.1-9.7c0.6-3,1.8-5.3,3.4-6.7c1.2-0.8,2.5-1.3,4.1-1.5c1.4-0.1,2.7,0,4,0.5
	C81.8,5.2,83.7,7.1,84.3,9.2L84.3,9.2z"/>
<path class="st13" d="M103.1,20c0.1,0.4,0.1,0.9,0.1,1.3c0,1.4-0.3,2.4-0.8,3.2c-0.8,1.2-2.1,1.8-3.8,1.7c-1.5-0.1-2.5-0.8-3.1-2.2
	v-1.1c0-0.3-0.1-0.6-0.4-0.8l-0.2,0c-1.6,4.1-2.4,7.6-2.4,10.4c0,0.9,0,1.3,0,1c0,0.4,0.2,0.7,0.6,1.1c1.1-0.1,1.8-0.4,2-1
	c0.1-0.4,0-0.7-0.4-1c-0.4,0-0.6-0.1-0.7-0.2c-0.3-0.1-0.4-0.3-0.4-0.6c0-0.6,0.1-1.3,0.6-2.1l0.9-0.8c0.2,0,0.9,0,1.9-0.1
	c1-0.1,1.7-0.1,2.1-0.1c1.4,0,2.5,0.4,3.2,1.1c0.5,0.7,0.7,1.7,0.7,2.9c0,1.4-0.3,2.8-0.8,4.3c-0.6,1.6-1.4,3-2.5,4.1
	c-1.2,1.3-2.6,2-4.1,2.2c-0.8,0.1-1.4,0.2-2,0.2c-2.2,0-4.1-0.7-5.8-2.2c-1.2-1-2.1-2.5-2.8-4.6c-0.7-2-1-4.3-1-6.9
	c0-3.5,0.6-6.7,1.7-9.6c1.1-2.9,2.6-5,4.5-6.3c1.3-0.7,2.7-1,4.3-1c1.4,0,2.7,0.3,3.9,0.9C101.3,15.7,102.8,17.8,103.1,20L103.1,20z
	"/>
<path class="st13" d="M139.4,14.8L139.4,14.8c0.1,0.4,0.1,0.9,0,1.5c-0.2,1.3-0.6,2.2-1.2,2.8c-0.2,0.2-1.3,0.4-3.1,0.6
	c-1.8,0.2-2.7,0.3-2.8,0.4c-0.1,0.3-0.1,2.9,0,8c0,1,0,2-0.2,3.1c-0.3,2.3-0.8,4.2-1.5,5.6c-0.9,1.8-2.1,2.6-3.5,2.4
	c-2.3-0.3-3.8-1.2-4.6-2.7c-0.6-1.1-0.7-2.8-0.5-5.2c0,0.2,0.2-1.1,0.6-4l0.7-4.8c0.3-1.5,0.6-2.8,0.9-3.9c-0.2,0-0.4,0-0.7,0
	c-0.8-0.1-1.6-0.3-2.5-0.7c-1.1-0.5-1.8-1.1-2.1-1.9c-0.5-1.1-0.7-2.1-0.6-3c0.2-1.5,1.1-2.6,2.8-3.3c2.2-0.9,4.8-1.2,7.7-0.9
	c1.5,0.1,3.1,0.5,4.8,0.9c0.8,0.4,1.9,1,3.5,1.8C138.6,12.5,139.3,13.6,139.4,14.8z"/>
<path class="st13" d="M139,15.1L139,15.1c1.1-1.1,2.5-1.6,4.1-1.5c1.4,0,2.4,0.3,3,0.7c0.7,0.8,1,1.9,1,3.5c-0.2,1.2-0.4,2.9-0.6,5
	c0.2,1.1,0.6,1.7,1.2,1.7c0.2,0,0.6-0.1,1.1-0.3c0.3-0.1,0.5-0.6,0.7-1.5c-0.1-1.3-0.1-3.2,0-5.5c0.2-1.3,1-2.4,2.6-3.4
	c0.3-0.2,1-0.3,2.2-0.3c0.9,0,1.4,0,1.7,0.1c1.1,0.3,1.8,1.2,2.1,2.7c0.1,0.4,0.2,0.9,0.3,1.3c0.2,0.8,0.3,1.7,0.2,2.6
	c0,3.6-0.1,6.2-0.2,8c-0.2,3.8-1.1,7.9-2.5,12.4c-0.5,1.4-1.6,2.2-3.4,2.6c-1.1,0.2-2,0.1-2.7-0.4c-0.9-0.7-1.4-1.7-1.5-3.2
	c0-0.4,0-1.1,0.2-2.2c0.2-1,0.2-1.8,0.2-2.2c-0.1-0.6-0.5-1-1.2-1c-0.6,0-1.2,0.2-1.7,0.7c-0.5,0.5-0.8,1.1-0.8,1.8
	c0.1,0.5,0.2,1.4,0.4,2.7c0.1,0.9,0,1.5-0.2,2c-0.3,0.7-0.8,1.2-1.5,1.4c-0.5,0.2-1.3,0.3-2.4,0.2c-1.1,0-2-0.5-2.7-1.3
	c-0.6-0.7-1-1.9-1.4-3.4c-0.4-1.8-0.6-3.7-0.5-5.9c0.1-3.1,0.2-5.7,0.3-7.9C137.3,19.6,138,16.5,139,15.1z"/>
<path class="st13" d="M175.6,21.6c0.1,0.4,0.1,0.8,0.1,1.2c0,1.4-0.5,2.5-1.6,3.4c-1,0.9-2,1.2-3.1,1.1c-0.2-0.1-0.6-0.1-1.1,0
	c0,0.3,0,1.1-0.3,2.4c0,0.6,0.3,1.1,0.8,1.4c1-0.3,1.8-0.3,2.5,0c1,0.4,1.6,1.1,1.7,2.1c0.1,1.1-0.2,2.2-0.9,3.3
	c-0.7,1.1-1.8,2.1-3.1,2.8c-1.2,0.7-2.5,1-4.1,1c-1.4,0-2.6-0.3-3.7-0.8c-0.5-0.2-1.2-0.9-2.1-2.1c-1-1.7-1.5-5.4-1.5-11
	c0-3.2,0.2-6.9,0.8-11c0.3-2.4,1-3.9,2-4.7l6.2-0.6c1.1-0.2,2.1-0.3,3-0.3c1.9,0,3,0.5,3.4,1.5c0.1,0.4,0.2,0.9,0.2,1.4
	c0,1.1-0.4,2-1.2,2.7c-0.8,0.7-1.9,1-3.3,1c-0.3,0-0.6,0-0.8,0c-0.2,0.4-0.3,1-0.3,1.8c-0.1,1.1-0.1,1.7-0.1,1.8
	c0.1,0.4,0.3,0.6,0.8,0.7c0.7-0.6,1.6-0.9,2.7-0.9C173.8,19.8,174.8,20.4,175.6,21.6z"/>
<path class="st13" d="M195,41.3L195,41.3c-0.4,0.8-1,1.5-1.8,2.3c-1.1,1-2.1,1.6-3.2,1.7c-2.1,0.2-4.2-2-6.4-6.6
	c0.1,0.7,0.1,1.2,0.1,1.7c0,1.6-0.4,2.8-1.1,3.7c-1.1,0.8-2.3,1.2-3.4,1.2c-0.5,0-0.9-0.1-1.3-0.2c-1.5-0.4-2.4-0.9-2.8-1.4
	c-0.6-0.8-0.9-2.1-0.9-4.1v-1.5c-0.1-0.1,0-2.4,0.1-6.8c0.1-5.1,0.4-8.9,0.8-11.5c0.3-1.9,1.6-3.2,3.9-3.9c1.1-0.3,3.2-0.7,6.4-1
	c3.8,0.1,6.3,1.4,7.7,3.9c1.1,2.5,1.6,4.7,1.6,6.8c0,2.1-0.6,3.9-1.7,5.3c-0.2,0.2-0.9,0.9-2.1,2c2.8,3.1,4.2,5.7,4.2,7.8
	C195.1,40.8,195.1,41,195,41.3z M184.5,23.5L184.5,23.5c-0.2-0.1-0.3-0.1-0.4-0.1c-0.1,0-0.5,0.2-1.1,0.5c-0.1,0.1-0.1,0.8-0.1,1.9
	c0,1.4,0,2.7,0,4c0.9-0.3,1.7-0.8,2.4-1.4c0.7-0.6,1-1.3,1-2C186.2,25.6,185.6,24.6,184.5,23.5z"/>
<path class="st16" d="M23,3c1.8,0.2,2.9,0.9,3.4,2.1c0.2,0.5,0.2,1.2,0.1,1.9c-0.3,2.2-1.4,4.4-3.3,6.6c-0.7,0.8-1.7,2-3,3.5
	l-0.4,0.4l0.2,0.5c0.2,0.6,0.7,1.7,1.3,3.3c1.1,3.1,1.6,5.4,1.3,7c-0.2,1.1-0.6,2.1-1.4,2.9c-0.3,0.3-0.7,0.6-1.9,0.6
	c0,0-1-0.3-2.4-3.7c-0.9-2.1-1.4-3.8-1.5-5.1l0-0.2l-0.1-0.2c-0.2-0.3-0.6-0.5-1.2-0.8l-0.9-0.4l-0.7,0.6l-0.3,0.2l-0.4,0.3l0,0.4
	c0,1.6,0,2.8-0.2,3.7c-0.2,1.4-0.6,2.4-1.1,3.1c-0.7,0.4-1.6,0.6-2.5,0.5c-0.8-0.1-1.4-0.3-1.8-0.8c-0.7-0.7-1.8-3.2-0.5-11.3
	c0.5-3.5,1.3-6.9,2.3-10.1C9,5.3,9.7,4.1,10,3.7l0.1,0l0.5-0.5C11.2,2.5,12,2.3,13,2.4C14.3,2.5,15,3,15.2,3.9c0,0.6-0.1,1-0.2,1.4
	c-0.1,0.5-0.3,1.5-0.6,2.9c-0.3,1.5-0.5,2.4-0.6,2.7l0,0.2l0,0.2c0.2,0.8,0.9,1.2,1.6,1.2c0.6,0.1,1.4-0.1,1.8-0.9l0.1-0.7
	c0.2-1,0.8-2.5,1.9-4.3C21,3.8,22.1,3.2,22.6,3C22.7,3,22.8,3,23,3"/>
<path class="st16" d="M62.4,4.4c0.7,0,2.5,0,3.2,3.2C65.7,8,65.8,9,66,11.2l0,0c0.2,2.9,0.4,5.7,0.4,8.3c0,10.3-2.2,12.3-3.1,12.7
	c-0.2,0.1-0.5,0.1-0.8,0.1c-0.3,0-0.8,0-1.7-0.3c-0.5-0.4-2-3.5-6-11.9c0,0-0.4,4.7-0.4,6.5c0,2-0.8,3.4-1.4,4.6
	c-0.2,0.4-0.5,0.7-1,1c-0.2,0.1-0.6,0.3-0.9,0.3c0,0-0.1,0-0.1,0c-0.5-0.1-2.2-0.2-3-3.1c-0.5-1.5-0.7-3.9-0.7-7.1
	c0-6.4,0.3-10.7,0.8-12.8C48.2,8,49,6.9,50.2,6c0.6-0.4,1.2-0.6,1.8-0.6c0.3,0,0.6,0,1,0.1c0.7,0.4,2.5,1.3,4.1,5.9
	c0.5,1.5,1.2,3,1.7,4.1c0.7,1.4,1.7,3.8,1.7,3.8c-0.2-1.7-0.1-5.2-0.3-6.5c-0.3-2.2-0.4-3.8-0.4-4.8c0-1,0.3-1.9,0.8-2.5
	C60.9,4.7,61.5,4.4,62.4,4.4"/>
<path class="st16" d="M73.9,3.4c1.1-0.1,2.1,0,3.2,0.4c2.8,1.5,4.5,3.2,4.9,5l0.2,1l0.1,0c0,0.1,0,0.2,0,0.2
	c0.2,1.2,0.1,2.1-0.2,2.7c-0.4,0.8-1.1,1.3-2.1,1.4c-0.1,0-0.1,0-0.2,0c-0.6,0-1.4-0.1-2-1.1l-0.1-0.9c-0.1-0.6-0.4-1.1-1-1.4
	l-0.6-0.4l-0.7,0.2l-0.2,0.1l-0.7,0.2l-0.1,0.6c-0.9,4.3-1.1,8-0.7,10.9c0.1,0.5,0.1,0.9,0.1,1l0.5,0l-0.5,0.1
	c0.1,0.6,0.5,1.1,1.2,1.6l0.5,0.4l0.7-0.1c2-0.4,2.6-1.3,2.8-2l0,0l0,0c0.1-0.7-0.3-1.4-1.1-1.9l-0.3-0.2l-0.4,0c0,0-0.1,0-0.1,0
	c-0.1-0.4,0-0.8,0.2-1.3l0.3-0.4c0.3-0.1,0.8-0.1,1.5-0.3c1.2-0.2,1.7-0.3,1.9-0.3c1.2-0.1,1.8,0.2,2.2,0.4c0.4,0.5,0.7,1.3,0.9,2.2
	c0.2,1.3,0.2,2.7-0.1,4.1c-0.3,1.5-0.9,2.9-1.7,4c-0.8,1.2-1.8,1.9-2.9,2.1c-0.7,0.2-1.3,0.3-1.7,0.3c-1.8,0.2-3.4-0.3-5.1-1.3
	c-1.2-0.8-2.2-2.1-3.1-3.8c-0.9-1.8-1.6-4-2-6.5c-0.5-3.3-0.5-6.5,0.1-9.4c0.6-2.8,1.6-4.8,3-6.1C71.5,3.9,72.6,3.5,73.9,3.4"/>
<path class="st16" d="M93.8,13.2c1.1,0,2.1,0.2,3.1,0.7c2.5,1.8,3.9,3.7,4.1,5.5l0.1,1h0.1c0,0.1,0,0.2,0,0.2c0,1.2-0.2,2.1-0.6,2.7
	c-0.6,0.8-1.3,1.1-2.3,1.1c-0.1,0-0.1,0-0.2,0c-0.6,0-1.4-0.2-1.8-1.3v-0.9c0-0.6-0.3-1.1-0.7-1.5l-0.5-0.4l-0.7,0.1l-0.2,0
	l-0.8,0.1l-0.2,0.6c-1.6,4.2-2.4,7.8-2.4,10.7c0,0.5,0,0.9,0,1l0.5,0l-0.6,0c0,0.6,0.3,1.2,0.9,1.7l0.5,0.5l0.7-0.1
	c2-0.2,2.8-1,3.1-1.7l0,0l0,0c0.3-0.7,0-1.4-0.8-2l-0.3-0.2l-0.4-0.1c0,0-0.1,0-0.1,0c0-0.4,0.1-0.8,0.4-1.3l0.4-0.3
	c0.3,0,0.8-0.1,1.5-0.1c1.2-0.1,1.7-0.1,1.9-0.1c1.2,0,1.8,0.3,2.1,0.6c0.3,0.6,0.5,1.3,0.5,2.3c0,1.3-0.3,2.6-0.8,4
	c-0.5,1.5-1.3,2.8-2.3,3.8c-1,1.1-2.1,1.7-3.3,1.8c-0.7,0.1-1.3,0.1-1.8,0.1c-1.8,0-3.4-0.6-4.8-1.8c-1-0.9-1.9-2.3-2.5-4.1
	c-0.6-1.9-1-4.2-1-6.7c0-3.4,0.5-6.5,1.6-9.3c1-2.7,2.4-4.6,4-5.8C91.3,13.4,92.4,13.2,93.8,13.2"/>
<path class="st16" d="M128.2,9.2c1.4,0.1,2.9,0.4,4.4,0.8c0.8,0.4,1.9,0.9,3.3,1.6c1,0.7,1.5,1.5,1.5,2.4l0,0.4c0,0.3,0,0.6-0.1,0.9
	c-0.1,1-0.4,1.7-0.8,2.2c-0.2,0.1-0.8,0.2-2.3,0.3c-2.8,0.3-3.4,0.4-3.8,1l-0.1,0.1l0,0.1c-0.1,0.2-0.2,0.5-0.1,8.3c0,1,0,2-0.1,3
	c-0.2,2.2-0.7,4-1.4,5.3c-0.5,0.9-1.2,1.9-2.1,1.8c0,0,0,0,0,0c-1.8-0.2-2.9-0.9-3.5-2c-0.3-0.7-0.7-2-0.4-4.7l0,0c0,0,0,0,0,0l0,0
	l0,0c0,0,0,0,0,0l0,0l0,0c0.1-0.3,0.1-0.6,0.2-0.9c0.1-0.7,0.2-1.7,0.4-3L124,22c0.3-1.5,0.6-2.7,0.9-3.8l0.6-1.8l-2.2,0.5
	c0,0-0.1,0-0.2,0c-0.7-0.1-1.3-0.2-1.9-0.5c-0.8-0.4-1.3-0.8-1.5-1.3c-0.4-0.9-0.6-1.8-0.5-2.6c0.1-1.2,0.8-2,2.1-2.5
	C123.2,9.2,125.5,8.9,128.2,9.2"/>
<path class="st18" d="M122.8,31.1C122.8,31.1,122.8,31.2,122.8,31.1C122.8,31.2,122.8,31.1,122.8,31.1L122.8,31.1z"/>
<path class="st16" d="M154.1,13.8c0.5,0,0.7,0.1,0.7,0.1c0,0,0,0,0,0c0.6,0.2,1,0.8,1.3,1.9c0.1,0.4,0.2,0.9,0.3,1.3
	c0.2,0.8,0.2,1.6,0.2,2.4c0,3.5-0.1,6.2-0.2,8c-0.2,3.7-1,7.8-2.5,12.2c-0.3,1-1.1,1.6-2.4,1.8c-0.3,0.1-0.5,0.1-0.7,0.1
	c-0.3,0-0.5-0.1-0.8-0.2c-0.6-0.5-1-1.3-1-2.5c0-0.2,0-0.8,0.2-2c0.2-1.1,0.3-1.8,0.3-2.3l0-0.1l0-0.1c-0.2-1.1-1.1-1.9-2.4-1.9
	c-0.7,0-1.8,0.1-2.8,1c-0.7,0.7-1.1,1.5-1.1,2.5l0,0.1l0,0.1c0.1,0.5,0.2,1.4,0.4,2.6c0.1,0.9,0,1.4-0.1,1.5
	c-0.2,0.4-0.5,0.7-0.9,0.9c0,0-0.4,0.2-1.8,0.1c-0.7,0-1.2-0.3-1.7-0.8c-0.3-0.4-0.8-1.3-1.2-3.1c-0.4-1.7-0.5-3.6-0.5-5.7
	c0.1-3.1,0.2-5.7,0.3-7.9c0.3-5.8,1.1-8.1,1.8-8.9l0,0c0.8-0.7,1.8-1,2.9-1c1.2,0,1.8,0.2,2.1,0.4c0.4,0.6,0.6,1.5,0.6,2.7
	c-0.2,1.3-0.4,2.9-0.6,5l0,0.1l0,0.1c0.3,1.7,1.2,2.6,2.5,2.6c0.5,0,1-0.1,1.7-0.4c0.8-0.3,1.1-1.2,1.4-2.3l0-0.1l0-0.1
	c-0.1-1.3-0.1-3.1,0-5.4c0.1-1,0.8-1.8,2-2.5c0.1,0,0.5-0.1,1.5-0.1C153.8,13.8,154,13.8,154.1,13.8"/>
<path class="st16" d="M170.3,10.1c1.9,0,2,0.5,2.1,0.7c0.1,0.3,0.2,0.7,0.2,1.1c0,0.8-0.3,1.5-0.8,2c-0.5,0.5-1.3,0.7-2.3,0.7h-0.8
	h-0.9l-0.3,0.7c-0.2,0.5-0.3,1.2-0.4,2.1c-0.1,1.3-0.1,1.7-0.1,1.7l0,0.2l0,0.2c0.2,0.8,0.8,1.3,1.7,1.5l0.8,0.2l0.6-0.5
	c0.5-0.4,1-0.6,1.7-0.6c0.5,0,1.1,0.1,1.9,1.1c0,0.2,0.1,0.5,0,0.8c0,1.1-0.4,2-1.3,2.7c-0.6,0.5-1.1,0.8-1.7,0.8c0,0-0.1,0-0.1,0
	c-0.2-0.1-0.5-0.1-0.9-0.1c-0.2,0-0.4,0-0.7,0l-1.3,0.1l0.1,1c0,0.1,0,0.5-0.3,2.2l0,0.1v0.1c0,1.2,0.7,1.9,1.3,2.2l0.6,0.3l0.7-0.2
	c0.4-0.1,0.7-0.2,0.9-0.2c0.2,0,0.3,0,0.5,0.1c0.6,0.2,0.9,0.6,0.9,1.2c0.1,0.9-0.2,1.8-0.8,2.8c-0.6,1-1.5,1.8-2.7,2.5
	c-0.9,0.6-2,0.8-3.3,0.8c-1.1,0-2.1-0.2-3-0.6c0,0-0.5-0.3-1.6-1.7c-0.6-1.1-1.4-3.9-1.4-10.5c0-3.2,0.2-6.8,0.8-10.9
	c0.3-2.3,0.9-3.3,1.3-3.8l5.7-0.6l0.1,0l0.1,0C168.6,10.2,169.5,10.1,170.3,10.1"/>
<path class="st16" d="M184.7,15.2c3.2,0.1,5.3,1.2,6.5,3.2c1,2.3,1.5,4.5,1.5,6.4c0,1.9-0.5,3.5-1.5,4.8c-0.1,0.1-0.4,0.4-2,1.9
	l-0.7,0.6l0.6,0.7c2.6,2.9,3.9,5.3,3.9,7.2c0,0,0,0.1,0,0.3l0,0c-0.3,0.6-0.8,1.3-1.5,2c-0.8,0.8-1.6,1.2-2.4,1.3c0,0-0.1,0-0.1,0
	c-0.5,0-2.3-0.4-4.9-5.9l-3.2-6.9l1.8-0.6c1.1-0.4,2.1-1,2.9-1.7c0.9-0.8,1.3-1.7,1.3-2.6c0-1.2-0.7-2.4-2.1-3.7l-0.4-0.4h-0.4
	c-0.2-0.1-0.4-0.1-0.6-0.1c-0.4,0-0.8,0.1-1.9,0.7l-0.2,0.1l-0.1,0.1c-0.3,0.3-0.4,0.6-0.4,2.6c0,1.4,0,2.7,0,4v1.4l-0.1-0.2
	l0.9,7.7c0.1,0.6,0.1,1.2,0.1,1.6c0,1.3-0.3,2.3-0.8,3c-0.8,0.6-1.6,0.8-2.4,0.8c-0.4,0-0.7,0-0.9-0.1c-1.5-0.4-2-0.8-2.1-1
	c-0.3-0.3-0.7-1.2-0.7-3.6v-1.5V37l0,0c0-0.5,0-2,0.1-6.4c0.1-5,0.4-8.8,0.8-11.4c0.3-1.5,1.2-2.5,3.1-3.1
	C179.4,15.9,181,15.5,184.7,15.2"/>
<path class="st16" d="M42.7,12.8c-0.6-1.7-1.7-3.2-3.4-4.4c-1.6-1.2-3.2-1.7-4.8-1.7c-0.3,0-0.7,0-0.9,0.1
	c-3.8,0.7-6.3,4.2-7.6,10.4c-0.3,1.4-0.4,2.9-0.4,4.6c0,3.5,0.9,6.5,2.6,9c1.9,2.7,4.5,4,8,4c1.8,0,3.3-0.5,4.7-1.5
	c1.2-0.9,2.1-2.1,2.7-3.5l0.2-0.9c0.7-2.4,1-4.5,1-6.4C44.7,20.1,44,16.9,42.7,12.8z M37.2,26.8c-0.2,0.2-1.1,0.4-1.1,0.4
	c-0.2,0-0.4,0.1-0.6,0.1c-3.3,0-3.3-4-3.3-5.3c0-1.7,0.2-3.4,0.7-4.8c0.3-0.9,0.9-2.6,2.6-2.6c0.2,0,0.3,0,0.5,0.1
	c1.1,0.2,1.5,1.2,1.8,2.9c0.3,1.4,0.4,2.9,0.4,4.5C38.2,24.3,37.4,26.7,37.2,26.8z"/>
<path class="st19" d="M12.9,2.4c-0.3-0.1-1.3-0.3-2.6,0.6C9.5,3.7,8.6,5,8.1,6.7C7.6,8.4,8.6,9,9.5,8.2c0.5-0.4,1-2,1.6-2.8
	c0.4-0.5,1.3-1,1.6-1.2C14.1,3.1,13.2,2.5,12.9,2.4z"/>
<path class="st19" d="M33.6,7.5c-0.2-0.1-1.1-0.3-2.3,0.4c-0.8,0.5-1.7,1.6-2.3,3.2c-0.6,1.5,0.2,2,1.1,1.4c0.4-0.4,1-1.7,1.6-2.4
	c0.4-0.4,1.2-0.8,1.5-1C34.6,8.2,33.8,7.6,33.6,7.5z"/>
<path class="st19" d="M164.1,10.9c-0.2-0.1-1.1-0.1-2.1,0.8c-0.7,0.7-1.2,1.9-1.3,3.5c-0.2,1.6,0.8,1.9,1.4,1.1
	c0.3-0.4,0.5-1.9,0.9-2.6c0.3-0.5,1-1,1.1-1.2C165.3,11.4,164.3,11,164.1,10.9z"/>
<path class="st13" d="M119.2,19.5c0.1,0.4,0.2,0.8,0.2,1.2c0.2,1.3-0.2,2.5-1.2,3.6c-0.9,1-1.8,1.5-3,1.4c-0.2-0.1-0.6,0-1.1,0.1
	c0.1,0.3,0.1,1.1,0,2.5c0.1,0.6,0.4,1,0.9,1.3c1-0.4,1.8-0.5,2.5-0.3c1,0.3,1.7,0.9,1.9,1.9c0.2,1.1,0.1,2.2-0.5,3.4
	c-0.6,1.2-1.5,2.3-2.7,3.2c-1.1,0.8-2.4,1.3-4,1.5c-1.4,0.2-2.6,0-3.8-0.4c-0.5-0.2-1.3-0.8-2.3-1.9c-1.2-1.6-2.1-5.2-2.8-10.7
	c-0.4-3.2-0.5-6.9-0.5-11c0-2.4,0.5-4,1.5-4.9l6-1.3c1-0.3,2-0.6,3-0.7c1.9-0.2,3.1,0.2,3.5,1.1c0.2,0.4,0.3,0.8,0.4,1.3
	c0.1,1.1-0.2,2-0.9,2.8c-0.7,0.8-1.8,1.2-3.1,1.4c-0.3,0-0.6,0.1-0.8,0.1c-0.1,0.4-0.2,1-0.1,1.8c0.1,1.1,0.1,1.7,0.1,1.8
	c0.1,0.3,0.4,0.5,0.8,0.6c0.6-0.7,1.5-1.1,2.6-1.2C117.1,18,118.2,18.5,119.2,19.5z"/>
<path class="st16" d="M112.6,8.7c1.9-0.2,2.1,0.3,2.2,0.5c0.1,0.3,0.2,0.6,0.3,1.1c0.1,0.8-0.1,1.5-0.6,2c-0.5,0.5-1.2,0.8-2.2,0.9
	l-0.8,0.1l-0.9,0.1l-0.2,0.7c-0.2,0.5-0.2,1.2-0.1,2.2c0.1,1.3,0.1,1.7,0.1,1.7l0,0.2l0,0.1c0.2,0.7,0.9,1.2,1.9,1.3l0.8,0.1
	l0.5-0.5c0.4-0.4,0.9-0.7,1.7-0.8c0.4-0.1,1.1,0,2,0.9c0.1,0.2,0.1,0.5,0.1,0.8c0.1,1.1-0.2,2-0.9,2.8c-0.5,0.6-1,0.9-1.6,1
	c0,0-0.1,0-0.1,0c-0.3,0-0.5,0-0.9,0c-0.2,0-0.4,0.1-0.7,0.1l-1.3,0.3l0.2,1c0,0.1,0.1,0.4,0,2.2l0,0.1l0,0.1
	c0.1,1.2,0.9,1.8,1.5,2.1l0.6,0.3l0.6-0.3c0.3-0.1,0.7-0.2,0.9-0.3c0.2,0,0.3,0,0.5,0c0.6,0.2,0.9,0.5,1.1,1.1
	c0.2,0.9,0,1.8-0.5,2.8c-0.5,1-1.3,2-2.4,2.8c-0.9,0.7-1.9,1-3.2,1.2c-1.1,0.1-2.1,0-3.1-0.3c0,0-0.5-0.2-1.8-1.5
	c-0.8-1-1.8-3.7-2.6-10.3c-0.4-3.1-0.5-6.8-0.5-10.9c0-2.3,0.5-3.4,0.9-3.9l5.6-1.2l0.1,0l0.1,0C110.9,9,111.8,8.8,112.6,8.7"/>
<path class="st19" d="M106.5,10.2c-0.2-0.1-1.1,0-2,1.1c-0.6,0.7-1,2-0.9,3.6c0,1.6,1,1.8,1.5,1c0.3-0.5,0.3-1.9,0.6-2.7
	c0.2-0.5,0.8-1.1,1-1.3C107.7,10.6,106.7,10.3,106.5,10.2z"/>
<path class="st19" d="M50.5,6.6C49.7,7.3,49,8,48.4,9.1c-0.5,1-0.4,2-0.3,2.4c0.1,0.2,0.3,0.5,0.7,0.5c0.4,0,0.8-0.2,0.9-0.4
	c0.1-0.4,0.2-2,0.6-2.6c0.5-0.7,1-1.4,1.4-1.9C52.1,6.5,51.2,6.1,50.5,6.6z"/>
<path class="st19" d="M61.8,5.3c-0.5-0.1-1.1,0.6-1.4,1.2s-0.4,1.9,0.1,2c0.5,0.1,0.6-0.7,0.9-1.4S62.3,5.5,61.8,5.3z"/>
<path class="st19" d="M140.9,14.6c-0.6-0.2-1.3,0.8-1.6,1.6c-0.3,0.8-0.6,2.5,0,2.6c0.6,0.1,0.7-0.9,1.1-1.9
	C140.8,15.9,141.5,14.8,140.9,14.6z"/>
<path class="st19" d="M154.5,14.6c-0.6-0.1-1.4,0.9-1.7,1.6c-0.3,0.8-0.5,2.5,0.2,2.6c0.6,0.1,0.7-1,1.1-1.9
	C154.4,15.9,155.1,14.7,154.5,14.6z"/>
<path class="st19" d="M178.1,17c-0.8-0.2-1.7,1.2-2,2.2c-0.3,1.1-0.6,3.4,0.2,3.6s0.8-1.3,1.3-2.6C178,18.8,178.9,17.1,178.1,17z"/>
<path class="st19" d="M72.7,4.5c-0.9-0.3-2.4,0.7-3.1,1.6S68,9.2,69,9.5c0.9,0.3,1.4-1,2.3-2.2C72.2,6.2,73.7,4.9,72.7,4.5z"/>
<path class="st19" d="M92.6,14.2c-0.9-0.4-2.5,0.5-3.4,1.3c-0.8,0.8-2,2.9-1.2,3.2c0.9,0.4,1.5-0.9,2.6-1.9
	C91.8,15.8,93.5,14.6,92.6,14.2z"/>
<path class="st19" d="M125.3,9.6c-0.7-0.6-3.3,0.2-4.3,0.9c-1,0.7-2.1,2.1-1.4,2.6c0.7,0.5,1.7-0.7,3-1.5
	C123.9,10.8,126,10.2,125.3,9.6z"/>
</svg>
