<?xml version="1.0" encoding="utf-8"?>
<!-- Generator: Adobe Illustrator 23.0.0, SVG Export Plug-In . SVG Version: 6.00 Build 0)  -->
<svg version="1.1" id="Layer_1" xmlns="http://www.w3.org/2000/svg" xmlns:xlink="http://www.w3.org/1999/xlink" x="0px" y="0px" viewBox="0 0 196.2 48.3" style="enable-background:new 0 0 196.2 48.3;" xml:space="preserve">
    <style type="text/css">
        .st0 {
            fill: #FCA29D;
        }

        .st1 {
            fill: #EC4A3C;
        }

        .st2 {
            fill: #F37064;
        }

        .st3 {
            fill: #FFFBCE;
        }

        .st4 {
            fill: #FFFFFF;
        }

    </style>
    <path class="st0" d="M192.5,33.7c0.6-0.6,0.9-0.9,1-1.1c1.3-1.7,2-3.9,2-6.4c0-2.3-0.6-4.8-1.7-7.6c-0.1-0.3-0.3-0.6-0.5-0.8
	c-0.2-0.3-0.4-0.5-0.6-0.7c-0.4-0.5-0.9-0.9-1.4-1.3c-1.3-1-2.9-1.6-4.6-2c-1.4-0.3-2.8-0.4-4.3-0.2c-1.4,0.2-2.9,0.3-4.3,0.6
	c-0.6,0.1-1.2,0.2-1.8,0.4c-0.3,0.1-0.7,0.2-1,0.4c0.2-0.6,0.4-1.3,0.4-2s-0.1-1.4-0.3-1.9c-0.6-1.6-2.2-2.5-3.8-2.8
	c-0.9-0.2-1.9-0.2-2.8-0.2c-1,0.1-2,0.2-3,0.3c-0.9,0.1-1.9,0.2-2.9,0.3c-0.4,0-0.9,0.1-1.3,0.1c-0.4,0-0.9,0.1-1.4,0.1
	C159.6,9,159,9,158.5,9.4c-0.6,0.4-1,0.9-1.4,1.5s-0.6,1.2-0.9,1.9c-0.1,0-0.3-0.1-0.4-0.2c-0.2-0.1-0.3-0.1-0.5-0.2
	c-0.7-0.2-1.4-0.4-2-0.4c-0.8-0.1-1.7,0-2.5,0.1c-0.7,0.1-1.5,0.2-2.1,0.6c-0.7,0.4-1.3,0.8-1.9,1.4c0.1-0.1-0.7-0.8-0.8-0.8
	c-0.3-0.3-0.7-0.4-1.1-0.6c-0.4-0.2-0.7-0.3-1.1-0.4c-0.9-0.2-1.8-0.3-2.7-0.4c-0.9,0-1.7,0.1-2.6,0.2h-0.1c0,0-0.1,0-0.1-0.1
	c-0.4-0.4-0.7-0.8-1.1-1.1c-0.4-0.3-0.8-0.5-1.3-0.8c-1-0.5-2-1.1-3.1-1.4c-0.4-0.1-0.8-0.2-1.2-0.3c-0.5-0.1-1-0.3-1.6-0.4
	c-1-0.2-2-0.3-3-0.4c-3.5-0.3-6.6,0-9.2,1.1c-0.1,0-0.2,0.1-0.3,0.1l0,0c-0.2-0.5-0.6-1-1-1.3c-1.4-1.1-3.4-1.2-5.1-1
	c-1.4,0.2-2.7,0.6-4,0.9c-0.7,0.2-1.5,0.3-2.2,0.5c-0.9,0.2-1.8,0.4-2.7,0.6c-0.6,0.1-1.2,0.2-1.7,0.6c-0.4,0.2-0.7,0.6-0.9,0.9
	c-0.5,0.8-0.9,1.6-1.1,2.6c0,0.1,0,0.4-0.1,0.4s-0.2-0.1-0.2-0.1c-0.1-0.1-0.3-0.2-0.4-0.3c-0.5-0.3-1-0.5-1.5-0.6
	c-0.8-0.3-1.7-0.4-2.5-0.5c-0.2,0-0.5,0-0.7-0.1c-1.6-0.1-3.3,0.2-4.8,0.7c-0.5,0.2-0.9,0.4-1.4,0.6c-0.3,0.1-0.5,0.3-0.7,0.5
	c-0.3,0.2-0.6,0.5-0.9,0.8c0.2-0.9,0.3-2,0.1-3.2C85.6,10,85.3,9.3,85,8.6c-0.3-0.7-0.6-1.4-1.1-2c-0.2-0.3-0.4-0.6-0.7-0.8
	c-0.5-0.6-1.1-1.1-1.7-1.6c-1.3-1-2.5-1.9-4.1-2.4c-0.4-0.1-0.8-0.2-1.2-0.3c-0.8-0.2-1.7-0.2-2.6-0.2c-0.3,0-0.7,0-1,0.1
	c-1.7,0.2-3.3,0.7-4.8,1.5C67.7,3,67.6,3,67.5,3.1c-0.5,0.3-0.9,0.8-1.4,1.2c-0.6-0.6-1.3-1-2-1.3c-0.8-0.3-1.7-0.5-2.5-0.5
	c-0.1,0-0.3,0-0.4,0c-0.7,0-1.5,0.1-2.2,0.3s-1.3,0.5-1.9,0.9c-0.6,0.4-1.2,1-1.6,1.6c-0.4-0.4-0.9-0.9-1.4-1.2
	c-0.4-0.2-0.8-0.3-1.2-0.3c-0.4-0.1-0.8-0.2-1.3-0.2c-0.1,0-0.2,0-0.2,0c-0.1,0-0.2,0-0.3,0c-0.2,0-0.3,0-0.5,0
	c-1.7,0-3.3,0.5-4.6,1.5c-1.5,1.2-2.6,2.5-3.2,4.2c-0.6-0.6-1.3-1.2-2-1.8c-2.4-1.7-4.9-2.6-7.5-2.6c-0.7,0-1.3,0.1-1.9,0.2
	c-1,0.2-1.9,0.5-2.7,0.9c0-0.1,0-0.1-0.1-0.2c-0.1-0.2-0.2-0.4-0.3-0.6C28.2,5,28.1,4.8,28,4.6c-0.2-0.4-0.5-0.7-0.8-1
	s-0.7-0.6-1-0.8c-0.4-0.3-0.8-0.5-1.3-0.7c-0.6-0.3-1.3-0.4-1.9-0.6c-0.7-0.1-1.3-0.2-2-0.2c-0.3,0-0.5,0-0.8,0s-0.6,0.1-0.8,0.2
	c-0.3,0.1-0.5,0.2-0.8,0.3c-0.5,0.3-1,0.6-1.5,1C17,2.9,16.9,3,16.7,3.1c-1-1.4-2.7-2.3-4.9-2.5C10,0.5,7.9,1.1,6.4,2.5
	C5.4,3.1,4.4,4.6,3,9c-1.1,3.3-1.9,6.9-2.4,10.5c-1.1,7.4-0.7,11.6,1.3,13.6C3,34.2,4.5,34.9,6.3,35c2.1,0.2,4-0.2,5.6-1.2l0.2-0.1
	l0.2-0.1l0.1-0.1l0.1-0.1c0.1-0.2,0.3-0.4,0.4-0.6c1.3,2.5,2.8,3.7,4.7,3.9c0.2,0,0.3,0,0.5,0c2.9,0,4.4-1.2,5.1-1.9
	c0.3-0.3,0.5-0.5,0.7-0.8c2.7,3.5,6.4,5.3,11.1,5.3c2.8,0,5.3-0.8,7.4-2.4c0.8-0.6,1.5-1.3,2.1-2.1c1.4,1.5,3.1,2,4.6,2.2
	c0.2,0,0.4,0,0.7,0c1.1,0,2.2-0.3,3.3-1c1-0.6,1.8-1.3,2.2-2.2c0.4,0.6,0.8,1.2,1.3,1.6c0.2,0.2,0.4,0.3,0.6,0.4
	c0.2,0.1,0.5,0.2,0.7,0.2c0.8,0.2,1.7,0.4,2.5,0.5c0.3,0,0.7,0.1,1,0.1c0.9,0,1.7-0.1,2.5-0.4c1.6-0.6,2.8-1.8,3.7-3.7
	c0.6,0.6,1.2,1.2,1.8,1.6c2.5,1.7,5.2,2.3,8.1,2c0.7-0.1,1.5-0.2,2.4-0.4c0.2,0,0.3-0.1,0.5-0.1c0.2,0.8,0.4,1.7,0.6,2.4
	c0.8,2.4,1.9,4.2,3.4,5.5c2.2,1.9,4.8,2.9,7.7,2.9c0.7,0,1.5-0.1,2.4-0.2c2.2-0.3,4.1-1.3,5.8-3c1.1-1.1,1.9-2.4,2.6-3.9
	c1.3,1.3,2.1,1.6,2.7,1.9c1.6,0.6,3.3,0.7,5.2,0.5c2.1-0.2,4-0.9,5.5-2.1c0.7-0.5,1.3-1.1,1.9-1.7c0,0.1,0.1,0.2,0.1,0.2
	c1.1,2.2,3.5,3.6,6.7,4.1c0.1,0,0.1,0,0.2,0c1.5,0.1,4.3-0.1,6.1-3.7c0.4-0.7,0.7-1.6,1-2.5c0.1,1.1,0.2,2.1,0.4,3.1
	c0.4,1.9,1,3.3,1.8,4.2c1.2,1.4,2.9,2.2,4.8,2.3c1.7,0.1,2.9-0.1,3.8-0.5c0.8-0.3,1.5-0.8,2-1.4c0.3,0.4,0.6,0.7,1,0.9
	c0.6,0.5,1.7,1.1,3.3,1.1c0.6,0,1.2,0,1.8-0.1c2.7-0.5,4.6-1.9,5.3-4.1c0.3-0.8,0.5-1.6,0.7-2.4c1.3,1.6,2,2.1,2.7,2.4
	c1.5,0.7,3.2,1.1,5.1,1.1c1.8,0,3.4-0.4,4.9-1c0.1,1.7,0.5,3,1.2,3.9c0.8,1,2.2,1.8,4.3,2.4c2.7,0.8,5.8,0,7.9-1.8
	c0.1,0,1,0.8,1.1,0.9c0.4,0.3,0.8,0.5,1.2,0.7c2.3,1,4.8,0.5,6.8-0.8c1.2-0.8,2.2-1.9,3.1-3c0.1-0.2,0.3-0.3,0.4-0.5
	c0.3-0.5,0.4-1.4,0.3-2C196,39.1,194.9,36.6,192.5,33.7z M99.2,27.6L99.2,27.6C99.1,27.6,99.1,27.6,99.2,27.6
	C99.1,27.6,99.2,27.6,99.2,27.6z M120.5,9.1C120.7,9,120.9,9,121,9C120.8,9,120.6,9.1,120.5,9.1z M127,8.6c0.1,0,0.1,0,0.2,0
	c0.5,0.1,0.9,0.1,1.3,0.2C128,8.7,127.5,8.7,127,8.6z M147.5,44.4l0.1,0.1C147.6,44.5,147.5,44.5,147.5,44.4z" />
    <path class="st1" d="M7.6,3.9L7.6,3.9c1-1,2.2-1.4,3.8-1.3c1.9,0.2,3,1,3.4,2.5c-0.1,0.7-0.1,1.2-0.2,1.6c-0.1,0.5-0.3,1.5-0.6,2.9
	s-0.5,2.3-0.5,2.6c0.1,0.2,0.2,0.4,0.4,0.4c0.2,0,0.3-0.1,0.4-0.3c0,0,0-0.1,0-0.3c0.2-1.1,0.9-2.7,2.1-4.8c1.4-2.5,2.8-3.8,4.2-4.1
	c2.8,0.1,4.5,1.1,5.2,2.9C26,6.7,26.1,7.4,26,8.3c-0.4,2.3-1.5,4.7-3.5,7.1c-0.7,0.8-1.6,2-3,3.5c0.3,0.6,0.7,1.7,1.3,3.4
	c1.2,3.2,1.6,5.7,1.4,7.4c-0.2,1.3-0.7,2.5-1.6,3.4c-0.7,0.7-1.6,1.1-2.9,1.1c-1.2,0-2.4-1.5-3.6-4.5c-0.9-2.2-1.4-3.9-1.6-5.3
	c-0.1-0.1-0.3-0.2-0.7-0.4l-0.3,0.2c0,1.6,0,2.9-0.2,3.9c-0.2,1.6-0.7,2.9-1.5,3.7c-1.1,0.7-2.3,0.9-3.7,0.8c-1.1-0.1-2-0.5-2.7-1.1
	c-1.5-1.4-1.8-5.5-0.8-12c0.5-3.6,1.3-7,2.4-10.3S6.9,4.2,7.6,3.9z" />
    <path class="st1" d="M43.3,30.2L43.3,30.2c-0.6,2.1-1.7,3.7-3.3,4.9s-3.5,1.8-5.6,1.8c-3.9,0-6.9-1.5-9.1-4.6
	c-1.8-2.6-2.8-5.8-2.8-9.5c0-1.7,0.1-3.3,0.4-4.7c1.4-6.6,4.2-10.3,8.6-11.2c0.4-0.1,0.8-0.1,1.3-0.1c2,0,3.9,0.7,5.7,2
	c1.9,1.4,3.1,3,3.7,4.9c1.4,4.2,2.1,7.5,2.1,9.8C44.3,25.6,43.9,27.8,43.3,30.2L43.3,30.2z M34.1,27.5L34.1,27.5
	c0.7-0.2,1.1-1.6,1.1-4.3c0-1.6-0.1-3-0.4-4.3c-0.3-1.3-0.6-2-0.9-2c-0.5-0.2-1,0.5-1.5,1.8c-0.4,1.4-0.7,2.9-0.7,4.5
	C31.8,26.3,32.5,27.7,34.1,27.5z" />
    <path class="st1" d="M65.6,12.3L65.6,12.3c0.2,2.9,0.4,5.7,0.4,8.3c0,8.1-1.3,12.6-3.9,13.6c-0.4,0.2-0.8,0.2-1.4,0.2
	c-0.6,0-1.4-0.1-2.4-0.4c-1.2-0.7-3.1-4.8-5.6-12.3c0.4,2,0.7,3.9,0.7,5.8c0,2.1-0.3,3.8-0.9,5.1c-0.3,0.6-0.8,1.1-1.5,1.5
	s-1.4,0.6-2,0.5c-2-0.2-3.4-1.5-4.2-3.9c-0.5-1.6-0.7-4-0.7-7.3c0-6.5,0.3-10.8,0.8-13c0.4-1.7,1.3-3,2.7-4.1
	c0.7-0.5,1.6-0.8,2.7-0.8c0.5,0,1.1,0.1,1.6,0.3c1.4,0.8,2.8,3.1,4.2,7.1c0.6,1.6,1.1,3.5,1.6,5.6c-0.2-1.7-0.5-3.2-0.6-4.4
	c-0.3-2.2-0.4-3.9-0.4-4.9c0-1.2,0.3-2.3,1-3.1c0.7-0.9,1.8-1.4,3.1-1.4c2.4,0,3.9,1.4,4.5,4.1C65.3,9.3,65.4,10.5,65.6,12.3z" />
    <path class="st1" d="M81.8,9.7c0.1,0.4,0.2,0.8,0.3,1.3c0.2,1.4,0.1,2.5-0.3,3.3c-0.6,1.3-1.8,2-3.5,2.1c-1.5,0.1-2.7-0.5-3.4-1.9
	l-0.2-1.1c-0.1-0.3-0.2-0.6-0.5-0.8L74,12.7c-0.2,0.9-0.3,1.7-0.5,2.6c-0.1,0.8-0.2,1.6-0.3,2.4c-0.1,0.7-0.1,1.5-0.1,2.2
	s0,1.3,0.1,2s0.2,1.4,0.2,2.1c0,0.1,0,0.1,0,0.2s0,0.1,0.1,0.2c0.1,0.2,0.2,0.3,0.3,0.5c0.1,0.1,0.1,0.1,0.2,0.2
	c0,0,0.1,0.2,0.2,0.2c1.1-0.2,1.7-0.6,1.8-1.2c0-0.2,0-0.4-0.1-0.5c-0.1-0.2-0.3-0.3-0.5-0.4h-0.1c-0.3,0-0.6-0.1-0.9-0.3
	c-0.1,0-0.2-0.1-0.2-0.2c-0.1-0.1-0.1-0.3-0.2-0.5c0-0.2-0.1-0.3-0.1-0.5c0-0.4,0.1-0.8,0.2-1.2c0-0.1,0.1-0.2,0.1-0.3
	c0.1-0.1,0.1-0.2,0.2-0.2c0.1-0.1,0.2-0.3,0.4-0.4c0.1-0.1,0.1-0.1,0.2-0.2c0.1,0,0.2,0,0.2,0c0.1,0,0.2,0,0.3,0
	c0.2,0,0.4-0.1,0.6-0.1c0.4-0.1,0.8-0.2,1.3-0.2c0.2,0,0.4-0.1,0.6-0.1s0.4-0.1,0.6-0.1c0.1,0,0.1,0,0.2,0c1.4-0.1,2.5,0.1,3.4,0.8
	c0.6,0.7,1,1.6,1.2,2.8c0.2,1.4,0.2,2.8-0.1,4.4c-0.3,1.7-0.9,3.1-1.8,4.3c-1,1.4-2.2,2.3-3.7,2.6c-0.7,0.2-1.4,0.3-2,0.4
	c-2.1,0.2-4.2-0.3-6.1-1.6c-1.3-0.9-2.5-2.3-3.5-4.2s-1.7-4.2-2.1-6.8c-0.6-3.5-0.5-6.7,0.1-9.7s1.8-5.3,3.4-6.7
	c1.2-0.8,2.5-1.3,4.1-1.5c1.4-0.1,2.7,0,4,0.5C79.3,5.7,81.2,7.6,81.8,9.7z" />
    <path class="st1" d="M100.6,20.5c0.1,0.4,0.1,0.9,0.1,1.3c0,1.4-0.3,2.4-0.8,3.2c-0.8,1.2-2.1,1.8-3.8,1.7c-0.5,0-1-0.1-1.5-0.4
	c-0.4-0.2-0.8-0.5-1.1-0.9c-0.2-0.2-0.3-0.4-0.4-0.7c-0.2-0.4-0.1-0.9-0.1-1.3c0-0.2,0-0.3-0.1-0.5c-0.1-0.1-0.2-0.3-0.3-0.3h-0.1
	c0,0,0,0-0.1,0c0,0,0,0,0,0.1s-0.1,0.2-0.1,0.2c-0.1,0.2-0.1,0.3-0.2,0.5c-0.1,0.3-0.2,0.6-0.3,0.9c-0.2,0.6-0.4,1.2-0.6,1.8
	c-0.2,0.6-0.3,1.1-0.5,1.7c-0.1,0.5-0.2,1.1-0.3,1.6c-0.1,0.5-0.2,1-0.2,1.5c-0.1,0.5-0.1,1-0.1,1.4c0,0.2,0,0.4,0,0.5
	c0,0.9,0,1.3,0,1c0,0.4,0.2,0.7,0.4,0.9l0.1,0.1c0,0,0,0,0.1,0.1h0.1c0.4,0,0.8-0.1,1.2-0.3c0.2-0.1,0.4-0.2,0.5-0.4
	c0.1-0.1,0.1-0.2,0.2-0.3c0-0.1,0-0.2,0-0.3s0-0.2,0-0.2c-0.1-0.2-0.2-0.3-0.3-0.4c0,0-0.1,0-0.1-0.1h-0.1c-0.1,0-0.1,0-0.2,0
	s-0.2-0.1-0.3-0.1c-0.1-0.1-0.2-0.1-0.3-0.2c-0.1-0.1-0.2-0.3-0.2-0.5c0-0.3,0-0.7,0.1-1c0.1-0.2,0.1-0.4,0.2-0.6
	c0-0.1,0.1-0.1,0.1-0.2s0.1-0.2,0.1-0.2c0.1-0.1,0.2-0.2,0.3-0.3l0,0c0.1-0.1,0.2-0.2,0.3-0.3l0.1-0.1l0.1-0.1c0.1,0,0.1,0,0.2,0
	s0.2,0,0.3,0c0.3,0,0.5,0,0.8,0c0.1,0,0.2,0,0.3,0c0.1,0,0.2,0,0.3,0c1-0.1,1.7-0.1,2.1-0.1c1.4,0,2.5,0.4,3.2,1.1
	c0.5,0.7,0.7,1.7,0.7,2.9c0,1.4-0.3,2.8-0.8,4.3c-0.6,1.6-1.4,3-2.5,4.1c-1.2,1.3-2.6,2-4.1,2.2c-0.8,0.1-1.4,0.2-2,0.2
	c-2.2,0-4.1-0.7-5.8-2.2c-1.2-1-2.1-2.5-2.8-4.6c-0.7-2-1-4.3-1-6.9c0-3.5,0.6-6.7,1.7-9.6s2.6-5,4.5-6.3c1.3-0.7,2.7-1,4.3-1
	c1.4,0,2.7,0.3,3.9,0.9C98.8,16.2,100.3,18.3,100.6,20.5z" />
    <path class="st1" d="M136.9,15.3L136.9,15.3c0.1,0.4,0.1,0.9,0,1.5c-0.2,1.3-0.6,2.2-1.2,2.8c-0.2,0.2-1.3,0.4-3.1,0.6
	s-2.7,0.3-2.8,0.4c-0.1,0.3-0.1,2.9,0,8c0,1,0,2-0.2,3.1c-0.3,2.3-0.8,4.2-1.5,5.6c-0.9,1.8-2.1,2.6-3.5,2.4
	c-2.3-0.3-3.8-1.2-4.6-2.7c-0.6-1.1-0.7-2.8-0.5-5.2c0,0.2,0.2-1.1,0.6-4l0.7-4.8c0.3-1.5,0.6-2.8,0.9-3.9c-0.2,0-0.4,0-0.7,0
	c-0.8-0.1-1.6-0.3-2.5-0.7c-1.1-0.5-1.8-1.1-2.1-1.9c-0.5-1.1-0.7-2.1-0.6-3c0.2-1.5,1.1-2.6,2.8-3.3c2.2-0.9,4.8-1.2,7.7-0.9
	c1.5,0.1,3.1,0.5,4.8,0.9c0.8,0.4,1.9,1,3.5,1.8C136.1,13,136.8,14.1,136.9,15.3z" />
    <path class="st1" d="M136.5,15.6L136.5,15.6c1.1-1.1,2.5-1.6,4.1-1.5c1.4,0,2.4,0.3,3,0.7c0.7,0.8,1,1.9,1,3.5
	c-0.2,1.2-0.4,2.9-0.6,5c0.2,1.1,0.6,1.7,1.2,1.7c0.2,0,0.6-0.1,1.1-0.3c0.3-0.1,0.5-0.6,0.7-1.5c-0.1-1.3-0.1-3.2,0-5.5
	c0.2-1.3,1-2.4,2.6-3.4c0.3-0.2,1-0.3,2.2-0.3c0.9,0,1.4,0,1.7,0.1c1.1,0.3,1.8,1.2,2.1,2.7c0.1,0.4,0.2,0.9,0.3,1.3
	c0.2,0.8,0.3,1.7,0.2,2.6c0,3.6-0.1,6.2-0.2,8c-0.2,3.8-1.1,7.9-2.5,12.4c-0.5,1.4-1.6,2.2-3.4,2.6c-1.1,0.2-2,0.1-2.7-0.4
	c-0.9-0.7-1.4-1.7-1.5-3.2c0-0.4,0-1.1,0.2-2.2c0.2-1,0.2-1.8,0.2-2.2c-0.1-0.6-0.5-1-1.2-1c-0.6,0-1.2,0.2-1.7,0.7
	s-0.8,1.1-0.8,1.8c0.1,0.5,0.2,1.4,0.4,2.7c0.1,0.9,0,1.5-0.2,2c-0.3,0.7-0.8,1.2-1.5,1.4c-0.5,0.2-1.3,0.3-2.4,0.2
	c-1.1,0-2-0.5-2.7-1.3c-0.6-0.7-1-1.9-1.4-3.4c-0.4-1.8-0.6-3.7-0.5-5.9c0.1-3.1,0.2-5.7,0.3-7.9C134.8,20.1,135.5,17,136.5,15.6z" />
    <path class="st1" d="M173.1,22.1c0.1,0.4,0.1,0.8,0.1,1.2c0,1.4-0.5,2.5-1.6,3.4c-1,0.9-2,1.2-3.1,1.1c-0.2-0.1-0.6-0.1-1.1,0
	c0,0.3,0,1.1-0.3,2.4c0,0.6,0.3,1.1,0.8,1.4c1-0.3,1.8-0.3,2.5,0c1,0.4,1.6,1.1,1.7,2.1c0.1,1.1-0.2,2.2-0.9,3.3s-1.8,2.1-3.1,2.8
	c-1.2,0.7-2.5,1-4.1,1c-1.4,0-2.6-0.3-3.7-0.8c-0.5-0.2-1.2-0.9-2.1-2.1c-1-1.7-1.5-5.4-1.5-11c0-3.2,0.2-6.9,0.8-11
	c0.2-1.3,0.5-2.7,1.2-3.8c0.1-0.2,0.2-0.3,0.4-0.5c0.1-0.1,0.2-0.3,0.4-0.3c0.2-0.1,0.4-0.1,0.6-0.1c0.3,0,0.6-0.1,0.9-0.1
	c0.6-0.1,1.1-0.1,1.7-0.2c0.9-0.1,1.8-0.2,2.7-0.3c0.1,0,0.2,0,0.3,0c1.1-0.2,2.1-0.3,3-0.3c1.9,0,3,0.5,3.4,1.5
	c0.1,0.4,0.2,0.9,0.2,1.4c0,1.1-0.4,2-1.2,2.7c-0.8,0.7-1.9,1-3.3,1c-0.3,0-0.6,0-0.8,0c-0.2,0.4-0.3,1-0.3,1.8
	c-0.1,1.1-0.1,1.7-0.1,1.8c0.1,0.4,0.3,0.6,0.8,0.7c0.7-0.6,1.6-0.9,2.7-0.9C171.3,20.3,172.3,20.9,173.1,22.1z" />
    <path class="st1" d="M192.5,41.8c-0.4,0.8-1,1.5-1.8,2.3c-1.1,1-2.1,1.6-3.2,1.7c-2.1,0.2-4.2-2-6.4-6.6c0.1,0.7,0.1,1.2,0.1,1.7
	c0,1.6-0.4,2.8-1.1,3.7c-1.1,0.8-2.3,1.2-3.4,1.2c-0.5,0-0.9-0.1-1.3-0.2c-1.5-0.4-2.4-0.9-2.8-1.4c-0.6-0.8-0.9-2.1-0.9-4.1v-1.5
	c-0.1-0.1,0-2.4,0.1-6.8c0.1-5.1,0.4-8.9,0.8-11.5c0.3-1.9,1.6-3.2,3.9-3.9c1-0.3,2-0.4,3-0.6c0.7-0.1,1.5-0.2,2.2-0.3
	c1.6-0.2,3.2-0.1,4.7,0.4c1.2,0.4,2.3,1,3.1,1.9c0.4,0.4,0.7,0.9,1,1.4c1.1,2.5,1.6,4.7,1.6,6.8s-0.6,3.9-1.7,5.3
	c-0.2,0.2-0.9,0.9-2.1,2c2.8,3.1,4.2,5.7,4.2,7.8C192.6,41.3,192.6,41.5,192.5,41.8z M182,24L182,24c-0.2-0.1-0.3-0.1-0.4-0.1
	c-0.1,0-0.5,0.2-1.1,0.5c-0.1,0.1-0.1,0.8-0.1,1.9c0,1.4,0,2.7,0,4c0.9-0.3,1.7-0.8,2.4-1.4s1-1.3,1-2C183.7,26.1,183.1,25.1,182,24
	z" />
    <path class="st2" d="M20.5,3.5c1.8,0.2,2.9,0.9,3.4,2.1c0.2,0.5,0.2,1.2,0.1,1.9c-0.3,2.2-1.4,4.4-3.3,6.6c-0.7,0.8-1.7,2-3,3.5
	L17.3,18l0.2,0.5c0.2,0.6,0.7,1.7,1.3,3.3c1.1,3.1,1.6,5.4,1.3,7c-0.2,1.1-0.6,2.1-1.4,2.9c-0.3,0.3-0.7,0.6-1.9,0.6
	c0,0-1-0.3-2.4-3.7c-0.9-2.1-1.4-3.8-1.5-5.1v-0.2l-0.1-0.2c-0.2-0.3-0.6-0.5-1.2-0.8l-0.9-0.4L10,22.5l-0.3,0.2L9.3,23v0.4
	c0,1.6,0,2.8-0.2,3.7c-0.2,1.4-0.6,2.4-1.1,3.1c-0.7,0.4-1.6,0.6-2.5,0.5c-0.8-0.1-1.4-0.3-1.8-0.8C3,29.2,1.9,26.7,3.2,18.6
	c0.5-3.5,1.3-6.9,2.3-10.1c1-2.7,1.7-3.9,2-4.3h0.1l0.5-0.5C8.7,3,9.5,2.8,10.5,2.9c1.3,0.1,2,0.6,2.2,1.5c0,0.6-0.1,1-0.2,1.4
	c-0.1,0.5-0.3,1.5-0.6,2.9c-0.3,1.5-0.5,2.4-0.6,2.7v0.2v0.2c0.2,0.8,0.9,1.2,1.6,1.2c0.6,0.1,1.4-0.1,1.8-0.9l0.1-0.7
	c0.2-1,0.8-2.5,1.9-4.3c1.8-2.8,2.9-3.4,3.4-3.6C20.2,3.5,20.3,3.5,20.5,3.5" />
    <path class="st2" d="M59.9,5.5c0.7,0,2.5,0,3.2,3.1c0.1,0.4,0.2,1.4,0.4,3.5l0,0c0.2,2.8,0.4,5.6,0.4,8.1c0,10.1-2.2,12.1-3.1,12.5
	c-0.2,0.1-0.5,0.1-0.8,0.1s-0.8,0-1.7-0.3c-0.5-0.4-2-3.4-6-11.7c0,0-0.4,4.6-0.4,6.4c0,2-0.8,3.3-1.4,4.5c-0.2,0.4-0.5,0.7-1,1
	c-0.2,0.1-0.6,0.3-0.9,0.3h-0.1c-0.5-0.1-2.2-0.2-3-3c-0.5-1.5-0.7-3.8-0.7-7c0-6.3,0.3-10.5,0.8-12.6C45.7,9,46.5,7.9,47.7,7
	c0.6-0.4,1.2-0.6,1.8-0.6c0.3,0,0.6,0,1,0.1c0.7,0.4,2.5,1.3,4.1,5.8c0.5,1.5,1.2,2.9,1.7,4c0.7,1.4,1.7,3.7,1.7,3.7
	c-0.2-1.7-0.1-5.1-0.3-6.4c-0.3-2.2-0.4-3.7-0.4-4.7s0.3-1.9,0.8-2.5C58.4,5.8,59,5.5,59.9,5.5" />
    <path class="st2" d="M71.4,4.3c1.1-0.1,2.1,0,3.2,0.4c2.8,1.5,4.5,3.2,4.9,4.9l0.2,1h0.1c0,0.1,0,0.2,0,0.2c0.2,1.2,0.1,2.1-0.2,2.7
	c-0.4,0.8-1.1,1.3-2.1,1.4c-0.1,0-0.1,0-0.2,0c-0.6,0-1.4-0.1-2-1.1l-0.1-0.9c-0.1-0.6-0.4-1.1-1-1.4l-0.6-0.4l-0.7,0.2l-0.2,0.1
	L72,11.6l-0.1,0.6c-0.9,4.3-1.1,7.9-0.7,10.8c0.1,0.5,0.1,0.9,0.1,1h0.5L71.3,24c0.1,0.6,0.5,1.1,1.2,1.6L73,26l0.7-0.1
	c2-0.4,2.6-1.3,2.8-2c0-0.1,0-0.3,0-0.5s-0.1-0.3-0.2-0.5c-0.2-0.4-0.5-0.6-0.8-0.8c-0.1-0.1-0.2-0.2-0.4-0.2c0,0,0,0-0.1,0h-0.1
	c-0.1,0-0.3,0-0.4,0c0,0,0-0.3,0-0.4c0-0.1,0-0.3,0.1-0.4c0.1-0.2,0.1-0.4,0.3-0.6c0.1-0.1,0.1-0.2,0.2-0.2c0.1-0.1,0.2-0.1,0.3-0.1
	c0.1,0,0.2,0,0.3-0.1c0.7-0.1,1.4-0.3,2.1-0.4c0.8-0.1,1.7-0.2,2.5,0.1c0.1,0.1,0.3,0.1,0.4,0.2c0.4,0.5,0.7,1.3,0.9,2.2
	c0.2,1.3,0.2,2.7-0.1,4.1c-0.3,1.5-0.9,2.9-1.7,4c-0.8,1.2-1.8,1.9-2.9,2.1c-0.7,0.2-1.3,0.3-1.7,0.3c-1.8,0.2-3.4-0.3-5.1-1.3
	c-1.2-0.8-2.2-2.1-3.1-3.8c-0.9-1.8-1.6-4-2-6.4c-0.5-3.4-0.5-6.5,0.1-9.4c0.6-2.8,1.6-4.7,3-6C69,4.7,70.1,4.4,71.4,4.3" />
    <path class="st2" d="M91.3,13.7c1.1,0,2.1,0.2,3.1,0.7c2.5,1.8,3.9,3.7,4.1,5.5l0.1,1h0.1c0,0.1,0,0.2,0,0.2c0,1.2-0.2,2.1-0.6,2.7
	c-0.6,0.8-1.3,1.1-2.3,1.1c-0.1,0-0.1,0-0.2,0c-0.6,0-1.4-0.2-1.8-1.3v-0.9c0-0.6-0.3-1.1-0.7-1.5c-0.1-0.1-0.3-0.3-0.4-0.4
	c0,0-0.1,0-0.1-0.1h-0.1c-0.1,0-0.1,0-0.2,0s-0.3,0-0.4,0c-0.3,0-0.6,0.1-0.8,0.1C91,20.8,91,20.9,91,21s0,0.1-0.1,0.2
	c0,0.1-0.1,0.2-0.1,0.3c-0.3,0.8-0.6,1.7-0.9,2.5s-0.5,1.6-0.7,2.4c-0.2,0.7-0.3,1.5-0.5,2.2c-0.1,0.7-0.2,1.4-0.3,2
	c0,0.5,0,0.9-0.1,1.4c0,0.2,0,0.5,0,0.7c0,0.3-0.1,0.7,0,1c0.1,0.2,0.2,0.4,0.3,0.6c0.2,0.2,0.3,0.4,0.5,0.6
	c0.2,0.2,0.3,0.4,0.6,0.5c0.1,0,0.2,0,0.3,0c0.2,0,0.3-0.1,0.5-0.1c0.1,0,0.2,0,0.3,0c0.1,0,0.2,0,0.3-0.1c0.4-0.1,0.8-0.2,1.2-0.4
	c0.3-0.2,0.6-0.4,0.8-0.6c0.1-0.2,0.2-0.3,0.3-0.5c0.3-0.7,0-1.3-0.5-1.8c-0.2-0.2-0.5-0.4-0.7-0.5c-0.1,0-0.2,0-0.3-0.1h-0.1v-0.1
	v-0.1c0-0.1,0.1-0.2,0.1-0.3c0.1-0.2,0.2-0.5,0.3-0.7c0.2-0.3,0.6-0.3,0.9-0.3c0.4-0.1,0.9-0.1,1.4-0.1s0.9-0.1,1.4-0.1H96
	c0.7,0,1.4,0,2,0.5c0.3,0.2,0.4,0.6,0.5,0.9c0.1,0.4,0.2,0.9,0.2,1.3c0,0.1,0,0.1,0,0.2c0,1.3-0.3,2.6-0.8,4
	c-0.5,1.5-1.3,2.8-2.3,3.8c-1,1.1-2.1,1.7-3.3,1.8c-0.7,0.1-1.3,0.1-1.8,0.1c-1.8,0-3.4-0.6-4.8-1.8c-1-0.9-1.9-2.3-2.5-4.1
	c-0.6-1.9-1-4.2-1-6.7c0-3.4,0.5-6.5,1.6-9.3c1-2.7,2.4-4.6,4-5.8C88.8,13.9,89.9,13.7,91.3,13.7" />
    <path class="st2" d="M125.7,9.7c1.4,0.1,2.9,0.4,4.4,0.8c0.8,0.4,1.9,0.9,3.3,1.6c1,0.7,1.5,1.5,1.5,2.4v0.4c0,0.3,0,0.6-0.1,0.9
	c-0.1,1-0.4,1.7-0.8,2.2c-0.2,0.1-0.8,0.2-2.3,0.3c-2.8,0.3-3.4,0.4-3.8,1l-0.1,0.1v0.1c-0.1,0.2-0.2,0.5-0.1,8.3c0,1,0,2-0.1,3
	c-0.2,2.2-0.7,4-1.4,5.3c-0.5,0.9-1.2,1.9-2.1,1.8l0,0c-1.8-0.2-2.9-0.9-3.5-2c-0.3-0.7-0.7-2-0.4-4.7l0,0l0,0l0,0l0,0l0,0l0,0l0,0
	c0.1-0.3,0.1-0.6,0.2-0.9c0.1-0.7,0.2-1.7,0.4-3l0.7-4.8c0.3-1.5,0.6-2.7,0.9-3.8l0.6-1.8l-2.2,0.5c0,0-0.1,0-0.2,0
	c-0.7-0.1-1.3-0.2-1.9-0.5c-0.8-0.4-1.3-0.8-1.5-1.3c-0.4-0.9-0.6-1.8-0.5-2.6c0.1-1.2,0.8-2,2.1-2.5C120.7,9.7,123,9.4,125.7,9.7" />
    <path class="st3" d="M120.3,31.6C120.3,31.6,120.3,31.7,120.3,31.6C120.3,31.7,120.3,31.6,120.3,31.6L120.3,31.6z" />
    <path class="st2" d="M151.6,14.3c0.5,0,0.7,0.1,0.7,0.1l0,0c0.6,0.2,1,0.8,1.3,1.9c0.1,0.4,0.2,0.9,0.3,1.3c0.2,0.8,0.2,1.6,0.2,2.4
	c0,3.5-0.1,6.2-0.2,8c-0.2,3.7-1,7.8-2.5,12.2c-0.3,1-1.1,1.6-2.4,1.8c-0.3,0.1-0.5,0.1-0.7,0.1c-0.3,0-0.5-0.1-0.8-0.2
	c-0.6-0.5-1-1.3-1-2.5c0-0.2,0-0.8,0.2-2c0.2-1.1,0.3-1.8,0.3-2.3V35v-0.1c-0.2-1.1-1.1-1.9-2.4-1.9c-0.7,0-1.8,0.1-2.8,1
	c-0.7,0.7-1.1,1.5-1.1,2.5v0.1v0.1c0.1,0.5,0.2,1.4,0.4,2.6c0.1,0.9,0,1.4-0.1,1.5c-0.2,0.4-0.5,0.7-0.9,0.9c0,0-0.4,0.2-1.8,0.1
	c-0.7,0-1.2-0.3-1.7-0.8c-0.3-0.4-0.8-1.3-1.2-3.1c-0.4-1.7-0.5-3.6-0.5-5.7c0.1-3.1,0.2-5.7,0.3-7.9c0.3-5.8,1.1-8.1,1.8-8.9l0,0
	c0.8-0.7,1.8-1,2.9-1c1.2,0,1.8,0.2,2.1,0.4c0.4,0.6,0.6,1.5,0.6,2.7c-0.2,1.3-0.4,2.9-0.6,5v0.1v0.1c0.3,1.7,1.2,2.6,2.5,2.6
	c0.5,0,1-0.1,1.7-0.4c0.8-0.3,1.1-1.2,1.4-2.3v-0.1v-0.1c-0.1-1.3-0.1-3.1,0-5.4c0.1-1,0.8-1.8,2-2.5c0.1,0,0.5-0.1,1.5-0.1
	C151.3,14.3,151.5,14.3,151.6,14.3" />
    <path class="st2" d="M168,10.6c1.9,0,2,0.5,2.1,0.7c0.1,0.3,0.2,0.7,0.2,1.1c0,0.8-0.3,1.5-0.8,2s-1.3,0.7-2.3,0.7h-0.8h-0.9
	l-0.3,0.7c-0.2,0.5-0.3,1.2-0.4,2.1c-0.1,1.3-0.1,1.7-0.1,1.7v0.2V20c0.2,0.8,0.8,1.3,1.7,1.5l0.8,0.2l0.6-0.5
	c0.5-0.4,1-0.6,1.7-0.6c0.5,0,1.1,0.1,1.9,1.1c0,0.2,0.1,0.5,0,0.8c0,1.1-0.4,2-1.3,2.7c-0.6,0.5-1.1,0.8-1.7,0.8h-0.1
	c-0.2-0.1-0.5-0.1-0.9-0.1c-0.2,0-0.4,0-0.7,0l-1.3,0.1l0.1,1c0,0.1,0,0.5-0.3,2.2v0.1v0.1c0,1.2,0.7,1.9,1.3,2.2l0.6,0.3l0.7-0.2
	c0.4-0.1,0.7-0.2,0.9-0.2s0.3,0,0.5,0.1c0.6,0.2,0.9,0.6,0.9,1.2c0.1,0.9-0.2,1.8-0.8,2.8s-1.5,1.8-2.7,2.5c-0.9,0.6-2,0.8-3.3,0.8
	c-1.1,0-2.1-0.2-3-0.6c0,0-0.5-0.3-1.6-1.7c-0.6-1.1-1.4-3.9-1.4-10.5c0-3.2,0.2-6.8,0.8-10.9c0.2-1.2,0.4-2.4,1-3.4
	c0.1-0.1,0.2-0.3,0.3-0.4c0.2-0.1,0.4-0.1,0.6-0.1c0.2,0,0.5-0.1,0.7-0.1c0.6-0.1,1.1-0.1,1.7-0.2c0.8-0.1,1.7-0.2,2.5-0.3h0.1h0.1
	h0.1C166.3,10.7,167.2,10.6,168,10.6" />
    <path class="st2" d="M182.2,15.7c0.9,0,1.8,0.2,2.7,0.4c0.7,0.1,1.4,0.4,2,0.9c0.5,0.4,1,0.8,1.3,1.3c0.5,0.7,0.8,1.4,1.1,2.1
	c0.9,2.3,1.2,4.9,0.5,7.3c-0.6,2-2,3.8-3.8,4.9c1.7,1.9,3.3,3.8,4.2,6.1c0.3,0.7,0.5,1.5,0.2,2.2c-0.2,0.6-0.7,1.1-1.2,1.6
	c-0.8,0.8-1.8,1.7-2.9,1.5c-1-0.1-1.8-1-2.4-1.9c-2.3-3.4-3.9-7.1-5.5-10.9c1.4-0.4,2.9-0.8,4.1-1.7c1.2-0.9,2.1-2.3,1.8-3.8
	c-0.2-1-0.8-1.8-1.5-2.5c-0.4-0.4-0.8-0.8-1.4-1c-0.7-0.2-1.5,0.1-2.2,0.5c-0.3,0.2-0.6,0.3-0.8,0.6c-0.1,0.3-0.2,0.6-0.2,0.9
	c0,2.2-0.1,4.5-0.1,6.7c0.4,3,0.8,6,0.9,9.1c0,1.1,0,2.4-0.9,3.2c-0.9,0.9-2.3,0.7-3.6,0.5c-0.7-0.2-1.3-0.4-1.8-0.9
	c-0.5-0.6-0.5-1.4-0.5-2.1c-0.2-6.5,0-13,0.6-19.5c0.1-0.9,0.2-1.8,0.6-2.6c0.7-1.3,2.3-2,3.8-2.3c0.8-0.1,1.6-0.2,2.4-0.3
	c0.4,0,0.8-0.1,1.2-0.1C181.4,15.8,181.8,15.7,182.2,15.7" />
    <path class="st2" d="M40.2,13.3c-0.6-1.7-1.7-3.2-3.4-4.4c-1.6-1.2-3.2-1.7-4.8-1.7c-0.3,0-0.7,0-0.9,0.1c-3.8,0.7-6.3,4.2-7.6,10.4
	c-0.3,1.4-0.4,2.9-0.4,4.6c0,3.5,0.9,6.5,2.6,9c1.9,2.7,4.5,4,8,4c1.8,0,3.3-0.5,4.7-1.5c1.2-0.9,2.1-2.1,2.7-3.5l0.2-0.9
	c0.7-2.4,1-4.5,1-6.4C42.2,20.6,41.5,17.4,40.2,13.3z M34.7,27.3c-0.2,0.2-1.1,0.4-1.1,0.4c-0.2,0-0.4,0.1-0.6,0.1
	c-3.3,0-3.3-4-3.3-5.3c0-1.7,0.2-3.4,0.7-4.8c0.3-0.9,0.9-2.6,2.6-2.6c0.2,0,0.3,0,0.5,0.1c1.1,0.2,1.5,1.2,1.8,2.9
	c0.3,1.4,0.4,2.9,0.4,4.5C35.7,24.8,34.9,27.2,34.7,27.3z" />
    <path class="st4" d="M10.7,3.8c-0.3-0.1-1.2-0.3-2.4,0.6C7.5,5,6.7,6.3,6.2,7.9s0.5,2.2,1.3,1.4C8,9,8.5,7.5,9,6.7
	c0.4-0.5,1.2-1,1.5-1.2C11.9,4.5,11,3.9,10.7,3.8z" />
    <path class="st4" d="M31.7,8.2c-0.2-0.1-1.1-0.3-2.3,0.4c-0.8,0.5-1.7,1.6-2.3,3.2c-0.6,1.5,0.2,2,1.1,1.4c0.4-0.4,1-1.7,1.6-2.4
	c0.4-0.4,1.2-0.8,1.5-1C32.7,8.9,31.9,8.3,31.7,8.2z" />
    <path class="st4" d="M161.6,11.4c-0.2-0.1-1.1-0.1-2.1,0.8c-0.7,0.7-1.2,1.9-1.3,3.5c-0.2,1.6,0.8,1.9,1.4,1.1
	c0.3-0.4,0.5-1.9,0.9-2.6c0.3-0.5,1-1,1.1-1.2C162.8,11.9,161.8,11.5,161.6,11.4z" />
    <path class="st1" d="M116.7,20c0.1,0.4,0.2,0.8,0.2,1.2c0.2,1.3-0.2,2.5-1.2,3.6c-0.9,1-1.8,1.5-3,1.4c-0.2-0.1-0.6,0-1.1,0.1
	c0.1,0.3,0.1,1.1,0,2.5c0.1,0.6,0.4,1,0.9,1.3c1-0.4,1.8-0.5,2.5-0.3c1,0.3,1.7,0.9,1.9,1.9c0.2,1.1,0.1,2.2-0.5,3.4
	s-1.5,2.3-2.7,3.2c-1.1,0.8-2.4,1.3-4,1.5c-1.4,0.2-2.6,0-3.8-0.4c-0.5-0.2-1.3-0.8-2.3-1.9c-1.2-1.6-2.1-5.2-2.8-10.7
	c-0.4-3.2-0.5-6.9-0.5-11c0-0.4,0-0.8,0-1.2s0.1-0.7,0.1-1.1c0.1-0.3,0.1-0.6,0.2-0.9c0.1-0.3,0.2-0.5,0.3-0.8
	c0.1-0.2,0.3-0.4,0.4-0.6c0-0.1,0.1-0.1,0.1-0.2c0.1-0.1,0.1-0.1,0.2-0.1s0.2,0,0.3-0.1c0.1,0,0.2-0.1,0.4-0.1
	c0.2,0,0.4-0.1,0.6-0.1c0.2-0.1,0.5-0.1,0.7-0.2c0.3-0.1,0.5-0.1,0.8-0.2c0.3-0.1,0.5-0.1,0.8-0.2c0.3-0.1,0.5-0.1,0.8-0.2
	c0.2,0,0.4-0.1,0.7-0.1c0.2,0,0.3-0.1,0.5-0.1c0.1,0,0.2,0,0.3-0.1c0,0,0,0,0.1,0c1-0.3,2-0.6,3-0.7c1.9-0.2,3.1,0.2,3.5,1.1
	c0.2,0.4,0.3,0.8,0.4,1.3c0.1,1.1-0.2,2-0.9,2.8c-0.7,0.8-1.8,1.2-3.1,1.4c-0.3,0-0.6,0.1-0.8,0.1c-0.1,0.4-0.2,1-0.1,1.8
	c0.1,1.1,0.1,1.7,0.1,1.8c0.1,0.3,0.4,0.5,0.8,0.6c0.6-0.7,1.5-1.1,2.6-1.2C114.6,18.5,115.7,19,116.7,20z" />
    <path class="st2" d="M110.1,9.2c1.9-0.2,2.1,0.3,2.2,0.5c0.1,0.3,0.2,0.6,0.3,1.1c0.1,0.8-0.1,1.5-0.6,2s-1.2,0.8-2.2,0.9l-0.8,0.1
	l-0.9,0.1l-0.2,0.7c-0.2,0.5-0.2,1.2-0.1,2.2c0.1,1.3,0.1,1.7,0.1,1.7v0.2v0.1c0.2,0.7,0.9,1.2,1.9,1.3l0.8,0.1l0.5-0.5
	c0.4-0.4,0.9-0.7,1.7-0.8c0.4-0.1,1.1,0,2,0.9c0.1,0.2,0.1,0.5,0.1,0.8c0.1,1.1-0.2,2-0.9,2.8c-0.5,0.6-1,0.9-1.6,1h-0.1
	c-0.3,0-0.5,0-0.9,0c-0.2,0-0.4,0.1-0.7,0.1l-1.3,0.3l0.2,1c0,0.1,0.1,0.4,0,2.2v0.1v0.1c0.1,1.2,0.9,1.8,1.5,2.1l0.6,0.3l0.6-0.3
	c0.3-0.1,0.7-0.2,0.9-0.3c0.2,0,0.3,0,0.5,0c0.6,0.2,0.9,0.5,1.1,1.1c0.2,0.9,0,1.8-0.5,2.8s-1.3,2-2.4,2.8c-0.9,0.7-1.9,1-3.2,1.2
	c-1.1,0.1-2.1,0-3.1-0.3c0,0-0.5-0.2-1.8-1.5c-0.8-1-1.8-3.7-2.6-10.3c-0.4-3.1-0.5-6.8-0.5-10.9c0-0.4,0-0.8,0.1-1.2
	c0-0.3,0.1-0.6,0.2-1c0.1-0.3,0.2-0.5,0.3-0.7c0.1-0.2,0.2-0.4,0.3-0.6c0.1-0.1,0.1-0.2,0.2-0.3s0.1-0.2,0.2-0.2s0.2-0.1,0.4-0.1
	c0.2,0,0.3-0.1,0.5-0.1s0.4-0.1,0.7-0.1c0.2-0.1,0.5-0.1,0.7-0.2c0.3-0.1,0.5-0.1,0.8-0.2c0.2-0.1,0.5-0.1,0.7-0.2
	c0.2,0,0.4-0.1,0.6-0.1s0.3-0.1,0.5-0.1c0.1,0,0.2,0,0.3-0.1h0.1h0.1h0.1C108.4,9.5,109.3,9.3,110.1,9.2" />
    <path class="st4" d="M104,10.7c-0.2-0.1-1.1,0-2,1.1c-0.6,0.7-1,2-0.9,3.6c0,1.6,1,1.8,1.5,1c0.3-0.5,0.3-1.9,0.6-2.7
	c0.2-0.5,0.8-1.1,1-1.3C105.2,11.1,104.2,10.8,104,10.7z" />
    <path class="st4" d="M48.8,7.1c-0.8,0.7-1.5,1.4-2.1,2.5c-0.5,1-0.4,2-0.3,2.4c0.1,0.2,0.3,0.5,0.7,0.5s0.8-0.2,0.9-0.4
	c0.1-0.4,0.2-2,0.6-2.6c0.5-0.7,1-1.4,1.4-1.9C50.4,7,49.5,6.6,48.8,7.1z" />
    <path class="st4" d="M59.6,5.8c-0.5-0.1-1.1,0.6-1.4,1.2s-0.4,1.9,0.1,2s0.6-0.7,0.9-1.4S60.1,6,59.6,5.8z" />
    <path class="st4" d="M138.4,15.1c-0.6-0.2-1.3,0.8-1.6,1.6s-0.6,2.5,0,2.6s0.7-0.9,1.1-1.9C138.3,16.4,139,15.3,138.4,15.1z" />
    <path class="st4" d="M152,15.1c-0.6-0.1-1.4,0.9-1.7,1.6c-0.3,0.8-0.5,2.5,0.2,2.6c0.6,0.1,0.7-1,1.1-1.9
	C151.9,16.4,152.6,15.2,152,15.1z" />
    <path class="st4" d="M175.6,17.5c-0.8-0.2-1.7,1.2-2,2.2c-0.3,1.1-0.6,3.4,0.2,3.6s0.8-1.3,1.3-2.6
	C175.5,19.3,176.4,17.6,175.6,17.5z" />
    <path class="st4" d="M70.9,5.6c-0.9-0.3-2.4,0.7-3.1,1.6s-1.6,3.1-0.6,3.4c0.9,0.3,1.4-1,2.3-2.2C70.4,7.3,71.9,6,70.9,5.6z" />
    <path class="st4" d="M90.1,14.7c-0.9-0.4-2.5,0.5-3.4,1.3c-0.8,0.8-2,2.9-1.2,3.2c0.9,0.4,1.5-0.9,2.6-1.9
	C89.3,16.3,91,15.1,90.1,14.7z" />
    <path class="st4" d="M122.8,10.1c-0.7-0.6-3.3,0.2-4.3,0.9s-2.1,2.1-1.4,2.6s1.7-0.7,3-1.5S123.5,10.7,122.8,10.1z" />
</svg>
